<svg xmlns="http://www.w3.org/2000/svg" width="22" height="22" viewBox="0 0 22 22">
  <g transform="translate(-38 -330)">
    <rect width="22" height="22" transform="translate(38 330)" fill="none"></rect>
    <g transform="translate(38.038 327.66)">
      <path d="M21.928,10.475c-.235-1.158-1.6-1.887-3.943-2.126A8.616,8.616,0,0,0,2.511,11.593C.165,12.961-.164,14.154,0,14.932c.15.729.834,1.627,3.145,2.022a8.613,8.613,0,0,0,16.432-3.239C21.2,12.726,22.158,11.608,21.928,10.475ZM10.962,6.108A7.23,7.23,0,0,1,18.17,12.9a25.814,25.814,0,0,1-6.714,2.236,25.932,25.932,0,0,1-7.253.554c-.025,0-.05,0-.075-.01a7.107,7.107,0,0,1-.4-2.336A7.241,7.241,0,0,1,10.962,6.108Zm-9.6,8.55c-.04-.195.155-.654.968-1.273a8.692,8.692,0,0,0,.26,2.022C1.723,15.157,1.4,14.838,1.363,14.658Zm9.6,5.915a7.23,7.23,0,0,1-6.149-3.444c.309.015.624.025.948.025a30.643,30.643,0,0,0,5.97-.654,29.444,29.444,0,0,0,6.359-2.007A7.235,7.235,0,0,1,10.962,20.573Zm8.53-8.48a8.524,8.524,0,0,0-.624-2.2c1.218.25,1.647.644,1.692.864C20.62,11.049,20.256,11.533,19.492,12.092Z" transform="translate(0)" fill="#999"></path>
    </g>
  </g>
</svg>