<svg xmlns="http://www.w3.org/2000/svg" viewBox="0 0 44 44" class="design-iconfont">
  <style>
  </style>
  <g id="&#x56FE;&#x5C42;_6">
    <linearGradient id="SVGID_1_" gradientUnits="userSpaceOnUse" x1="24.5118" y1="10.1087" x2="24.5118" y2="37.1342">
      <stop offset=".2998" stop-color="#fa7c0d"></stop>
      <stop offset="1" stop-color="#fb943a" stop-opacity="0"></stop>
    </linearGradient>
    <path fill="url(#SVGID_1_)" d="M24.51 10.110000000000001A13.51 13.51 0 1 0 24.51 37.13A13.51 13.51 0 1 0 24.51 10.110000000000001Z"></path>
    <path d="M43.97,16.26c-0.47-2.32-3.2-3.78-7.9-4.26C32.94,7.6,27.8,4.71,22,4.71c-8.34,0-15.31,5.93-16.93,13.79 c-4.7,2.74-5.36,5.13-5.04,6.69c0.3,1.46,1.67,3.26,6.3,4.05C9.07,35.16,15.05,39.29,22,39.29c9.28,0,16.86-7.36,17.25-16.54 C42.51,20.77,44.43,18.53,43.97,16.26z M22,7.51c7.69,0,13.98,6.02,14.44,13.6c-3.05,1.6-7.53,3.27-13.45,4.48 c-5.37,1.09-10.53,1.49-14.53,1.11c-0.05-0.01-0.1-0.01-0.15-0.02C7.8,25.21,7.51,23.64,7.51,22C7.51,14.01,14.01,7.51,22,7.51z M2.77,24.64c-0.08-0.39,0.31-1.31,1.94-2.55c0.01,1.4,0.2,2.75,0.52,4.05C3.49,25.64,2.85,25,2.77,24.64z M22,36.49 c-5.21,0-9.76-2.77-12.32-6.9c0.62,0.03,1.25,0.05,1.9,0.05c3.6,0,7.73-0.45,11.96-1.31c4.6-0.93,9.12-2.34,12.74-4.02 C35.17,31.2,29.2,36.49,22,36.49z M39.09,19.5c-0.23-1.55-0.64-3.03-1.25-4.41c2.44,0.5,3.3,1.29,3.39,1.73 C41.35,17.41,40.62,18.38,39.09,19.5z"></path>
  </g>
</svg>