<svg xmlns="http://www.w3.org/2000/svg" viewBox="0 0 44 44" class="design-iconfont">
  <style>
  </style>
  <g id="&#x56FE;&#x5C42;_6">
    <linearGradient id="SVGID_1_" gradientUnits="userSpaceOnUse" x1="25.702" y1="12.9335" x2="25.702" y2="35.5323">
      <stop offset=".2998" stop-color="#fa7c0d"></stop>
      <stop offset="1" stop-color="#fb943a" stop-opacity="0"></stop>
    </linearGradient>
    <path d="M39.15,35.53h-26.9V18.6c0-3.13,2.54-5.66,5.66-5.66h21.23V18l-2.94,4.18l2.94,4.76V35.53z" fill="url(#SVGID_1_)"></path>
    <g fill="#333">
      <path d="M39.76,18.88c0.57-0.21,0.95-0.75,0.95-1.35v-8.9c0-0.8-0.65-1.44-1.44-1.44H4.74 c-0.8,0-1.44,0.65-1.44,1.44v8.9c0,0.61,0.38,1.15,0.95,1.35c0.93,0.34,1.65,1.06,1.99,1.99c0.63,1.72-0.27,3.63-1.99,4.26 c-0.57,0.21-0.95,0.75-0.95,1.35v8.9c0,0.8,0.65,1.44,1.44,1.44h34.53c0.8,0,1.44-0.65,1.44-1.44v-8.9 c0-0.61-0.38-1.15-0.95-1.35c-0.93-0.34-1.65-1.06-1.99-1.99C37.14,21.41,38.03,19.5,39.76,18.88z M37.82,16.61 c-2.58,1.47-3.81,4.63-2.77,7.51c0.51,1.4,1.49,2.55,2.77,3.28v6.55H6.18V27.4c1.11-0.63,2-1.59,2.55-2.77 c0.7-1.5,0.78-3.19,0.21-4.74c-0.51-1.4-1.49-2.55-2.77-3.28v-6.55h31.65V16.61z"></path>
      <path d="M15.68,19.72h12.64c0.77,0,1.4-0.63,1.4-1.4s-0.63-1.4-1.4-1.4H15.68c-0.77,0-1.4,0.63-1.4,1.4 S14.9,19.72,15.68,19.72z"></path>
      <path d="M15.68,27.08h12.64c0.77,0,1.4-0.63,1.4-1.4s-0.63-1.4-1.4-1.4H15.68c-0.77,0-1.4,0.63-1.4,1.4 S14.9,27.08,15.68,27.08z"></path>
    </g>
  </g>
</svg>