<svg xmlns="http://www.w3.org/2000/svg" width="22" height="22" viewBox="0 0 22 22">
  <g transform="translate(-38 -330)">
    <rect width="22" height="22" transform="translate(38 330)" fill="none"></rect>
    <g transform="translate(35.484 325.719)">
      <g transform="translate(3.3 7.19)">
        <path d="M23.213,13.574a.789.789,0,0,0,.519-.737V7.976a.787.787,0,0,0-.786-.786H4.086a.787.787,0,0,0-.786.786v4.861a.778.778,0,0,0,.519.737,1.816,1.816,0,0,1,0,3.413.789.789,0,0,0-.519.737v4.861a.787.787,0,0,0,.786.786H22.945a.787.787,0,0,0,.786-.786V17.725a.778.778,0,0,0-.519-.737,1.816,1.816,0,0,1,0-3.413Zm-1.06-1.24a3.388,3.388,0,0,0,0,5.893V21.8H4.873V18.228a3.39,3.39,0,0,0-.005-5.893V8.757H22.153Z" transform="translate(-3.3 -7.19)" fill="#999"></path>
        <path d="M15.045,18.449h6.9a.765.765,0,0,0,0-1.529h-6.9a.765.765,0,0,0,0,1.529Z" transform="translate(-8.283 -11.606)" fill="#999"></path>
        <path d="M15.045,25.809h6.9a.765.765,0,0,0,0-1.529h-6.9a.765.765,0,0,0,0,1.529Z" transform="translate(-8.283 -14.946)" fill="#999"></path>
      </g>
    </g>
  </g>
</svg>