<svg xmlns="http://www.w3.org/2000/svg" width="22" height="22" viewBox="0 0 22 22">
  <g transform="translate(-38 -330)">
    <rect width="22" height="22" transform="translate(38 330)" fill="none"></rect>
    <g transform="translate(35.493 327.124)">
      <g transform="translate(3.476 4.25)">
        <path d="M8.357,23.5a1.693,1.693,0,0,1-1.664-1.973l.819-4.781a.164.164,0,0,0-.049-.146L3.988,13.211a1.687,1.687,0,0,1,.932-2.878l4.8-.7a.158.158,0,0,0,.125-.092l2.147-4.353a1.677,1.677,0,0,1,1.512-.938h0a1.677,1.677,0,0,1,1.512.938l2.147,4.353a.17.17,0,0,0,.125.092l4.8.7a1.687,1.687,0,0,1,.932,2.878L19.551,16.6a.164.164,0,0,0-.049.146l.819,4.787a1.669,1.669,0,0,1-.672,1.648,1.687,1.687,0,0,1-1.778.13l-4.293-2.26a.162.162,0,0,0-.157,0l-4.3,2.26A1.613,1.613,0,0,1,8.357,23.5ZM13.517,5.762a.162.162,0,0,0-.152.092l-2.147,4.353a1.684,1.684,0,0,1-1.268.922l-4.8.7a.157.157,0,0,0-.136.114.161.161,0,0,0,.043.173L8.53,15.5a1.673,1.673,0,0,1,.482,1.491l-.819,4.787a.155.155,0,0,0,.065.163.164.164,0,0,0,.179.011l4.3-2.26a1.67,1.67,0,0,1,1.567,0l4.293,2.26a.165.165,0,0,0,.179-.011.153.153,0,0,0,.065-.163L18.022,17a1.688,1.688,0,0,1,.482-1.491l3.475-3.388a.161.161,0,0,0,.043-.173.157.157,0,0,0-.136-.114l-4.8-.7a1.684,1.684,0,0,1-1.268-.922L13.669,5.86a.158.158,0,0,0-.152-.1Z" transform="translate(-3.476 -4.25)" fill="#999"></path>
      </g>
    </g>
  </g>
</svg>