<svg xmlns="http://www.w3.org/2000/svg" viewBox="0 0 44 44" class="design-iconfont">
  <style>
  </style>
  <g id="&#x56FE;&#x5C42;_6">
    <path d="M12.48,39.76c-0.64,0-1.28-0.2-1.83-0.6c-0.96-0.7-1.44-1.87-1.24-3.04l1.51-8.82c0.02-0.1-0.02-0.2-0.09-0.27 l-6.41-6.25c-0.85-0.83-1.16-2.05-0.79-3.19c0.37-1.13,1.33-1.95,2.51-2.12l8.86-1.29c0.1-0.01,0.19-0.08,0.23-0.17l3.96-8.03 c0.53-1.07,1.6-1.73,2.79-1.73c0,0,0,0,0,0c1.19,0,2.26,0.66,2.79,1.73l3.96,8.03c0.04,0.09,0.13,0.15,0.23,0.17l8.86,1.29 c1.18,0.17,2.14,0.98,2.51,2.12c0.37,1.13,0.07,2.36-0.79,3.19l-6.41,6.25c-0.07,0.07-0.11,0.17-0.09,0.27l1.51,8.83 c0.2,1.18-0.27,2.34-1.24,3.04s-2.22,0.79-3.28,0.24l-7.92-4.17c-0.09-0.05-0.2-0.05-0.29,0l-7.93,4.17 C13.47,39.64,12.97,39.76,12.48,39.76z M22,7.04c-0.13,0-0.22,0.06-0.28,0.17l-3.96,8.03c-0.45,0.92-1.33,1.55-2.34,1.7 l-8.86,1.29c-0.13,0.02-0.21,0.09-0.25,0.21c-0.04,0.12-0.01,0.23,0.08,0.32l6.41,6.25c0.73,0.71,1.07,1.74,0.89,2.75l-1.51,8.83 c-0.02,0.13,0.02,0.23,0.12,0.3s0.21,0.08,0.33,0.02l7.93-4.17c0.9-0.48,1.99-0.48,2.89,0l7.92,4.17 c0.11,0.06,0.22,0.05,0.33-0.02c0.1-0.08,0.15-0.18,0.12-0.3l-1.51-8.82c-0.17-1.01,0.16-2.04,0.89-2.75l6.41-6.25 c0.09-0.09,0.12-0.2,0.08-0.32s-0.12-0.19-0.25-0.21l-8.86-1.29c-1.01-0.15-1.89-0.78-2.34-1.7l-3.96-8.03 C22.22,7.1,22.13,7.04,22,7.04L22,7.04z"></path>
    <linearGradient id="SVGID_1_" gradientUnits="userSpaceOnUse" x1="22" y1="12.9713" x2="22" y2="31.0293">
      <stop offset=".2998" stop-color="#fa7c0d"></stop>
      <stop offset="1" stop-color="#fb943a" stop-opacity="0"></stop>
    </linearGradient>
    <path d="M22.73,13.43l2.29,4.63c0.12,0.24,0.35,0.41,0.62,0.45l5.11,0.74 c0.67,0.1,0.94,0.92,0.45,1.4l-3.7,3.61c-0.19,0.19-0.28,0.46-0.24,0.73l0.87,5.09c0.11,0.67-0.59,1.18-1.19,0.86l-4.57-2.4 c-0.24-0.13-0.52-0.13-0.76,0l-4.57,2.4c-0.6,0.32-1.3-0.19-1.19-0.86l0.87-5.09c0.05-0.27-0.04-0.54-0.24-0.73l-3.7-3.61 c-0.49-0.47-0.22-1.3,0.45-1.4l5.11-0.74c0.27-0.04,0.5-0.21,0.62-0.45l2.29-4.63C21.57,12.82,22.43,12.82,22.73,13.43z" fill="url(#SVGID_1_)"></path>
  </g>
</svg>