<svg xmlns="http://www.w3.org/2000/svg" viewBox="0 0 18 18" class="design-iconfont" width="128" height="128">
  <defs>
    <linearGradient id="yo5th318ka" x1="-1088.59" y1="385.85" x2="-1088.59" y2="385.28" gradientTransform="matrix(12.22 0 0 -15.71 13311.87 6069.49)" gradientUnits="userSpaceOnUse">
      <stop offset="0" stop-color="#fa7b0c"></stop>
      <stop offset="1" stop-color="#e43a44"></stop>
    </linearGradient>
  </defs>
  <path d="M13.58,4.65c-1.54,.4-2.53,1.89-2.31,3.47-1.46-1.82-1.4-3.92-1.4-6.94-4.71,1.87-3.62,7.29-3.76,8.93-1.18-.99-1.41-3.47-1.41-3.47-1.25,.93-1.95,2.42-1.87,3.97-.09,3.38,2.57,6.19,5.94,6.28,3.25,.09,6-2.38,6.26-5.62,.01-.22,.01-.44,0-.66-.01-2.12-1.47-3.09-1.45-5.96Z" fill="url(#yo5th318ka)"></path>
</svg>