<svg xmlns="http://www.w3.org/2000/svg" viewBox="0 0 46 46" class="design-iconfont" width="128" height="128">
  <path fill="#ffe7c4" d="M23 0A23 23 0 1 0 23 46A23 23 0 1 0 23 0Z"></path>
  <path d="M23,12.66a5.23,5.23,0,0,0-5.23,5.23h0A5.23,5.23,0,0,0,23,23.11h0a5.23,5.23,0,0,0,5.23-5.22h0A5.23,5.23,0,0,0,23,12.66Z" fill="#ff9a36"></path>
  <path d="M23.37,24.45h-1.1c-4.95.27-10.27,2-10.27,5V32.4a.94.94,0,0,0,.94.94H33.06A.94.94,0,0,0,34,32.4V29.31C33.82,26.37,28.32,24.63,23.37,24.45Z" fill="#ff9a36"></path>
</svg>