<svg xmlns="http://www.w3.org/2000/svg" xmlns:xlink="http://www.w3.org/1999/xlink" viewBox="0 0 44 44">
  <defs>
    <style>.cls-1{fill:url(#未命名的渐变_7);}.cls-2{fill:#333;}</style>
    <linearGradient id="&#x672A;&#x547D;&#x540D;&#x7684;&#x6E10;&#x53D8;_7" x1="23.1" y1="30.97" x2="23.1" y2="40.57" gradientUnits="userSpaceOnUse">
      <stop offset="0.3" stop-color="#fa7c0d"></stop>
      <stop offset="1" stop-color="#fb943a" stop-opacity="0"></stop>
    </linearGradient>
  </defs>
  <g id="&#x56FE;&#x5C42;_6">
    <rect class="cls-1" x="8.39" y="30.97" width="29.42" height="9.6" rx="4.47"></rect>
    <path class="cls-2" d="M21.7,23.53A10.75,10.75,0,1,1,32.45,12.78,10.77,10.77,0,0,1,21.7,23.53Zm0-18.7a8,8,0,1,0,8,8A8,8,0,0,0,21.7,4.83Z"></path>
    <path class="cls-2" d="M32.33,42H11.06a8,8,0,1,1,0-16.09H32.33a8,8,0,1,1,0,16.09ZM11.06,28.68a5.25,5.25,0,1,0,0,10.49H32.33a5.25,5.25,0,1,0,0-10.49Z"></path>
  </g>
</svg>