<?xml version="1.0" standalone="no"?>
  <!DOCTYPE svg PUBLIC "-//W3C//DTD SVG 1.1//EN" "http://www.w3.org/Graphics/SVG/1.1/DTD/svg11.dtd" >
  <svg>
  <metadata>
  Created by font-carrier
  </metadata>
  <defs>
  <font id="iconfont" horiz-adv-x="1024" vert-adv-y="1024" >
    <font-face
      
      font-family="iconfont"
      
      font-weight="400"
      
      font-stretch="normal"
      
      units-per-em="1024"
      
      ascent="812"
      
      descent="-212"
      
    />
      <missing-glyph />

      
      <glyph glyph-name="x" unicode="&#x78;" horiz-adv-x="100"
        d="M20 20 L50 20 L50 -20 Z" />
      

      
      <glyph glyph-name="notification" unicode="&#xE001;" d="M921.6 33.248H835.584V423.904A323.584 323.584 0 0 1 188.416 423.904V33.248H102.4A24.576 24.576 0 0 1 77.824 8.16 24.064 24.064 0 0 1 102.4-16.416H377.344A134.656 134.656 0 0 1 646.656-16.416H921.6A24.064 24.064 0 0 1 946.176 8.16 24.576 24.576 0 0 1 921.6 33.248ZM239.616 423.904A272.384 272.384 0 0 0 784.384 423.904V33.248H239.616ZM512-97.312A85.504 85.504 0 0 0 427.008-16.416H596.992A85.504 85.504 0 0 0 512-97.312Z"  horiz-adv-x="1024" vert-adv-y="1024"  />

      
      <glyph glyph-name="arrow" unicode="&#xE002;" d="M743.04 415.84L531.2 159.84A21.12 21.12 0 0 0 501.76 159.84L501.76 159.84 284.16 415.84A21.12 21.12 0 0 0 284.16 445.28 22.4 22.4 0 0 0 298.24 450.4H727.68A21.12 21.12 0 0 0 748.16 429.92 24.32 24.32 0 0 0 743.68 416.48"  horiz-adv-x="1024" vert-adv-y="1024"  />

      
      <glyph glyph-name="fire" unicode="&#xE003;" d="M778.88 556A179.84 179.84 0 0 1 646.4 356.96C562.56 461.28 565.76 581.6 565.76 755.04 295.68 647.52 358.4 337.12 350.08 243.04 282.24 300 269.44 442.08 269.44 442.08A266.88 266.88 0 0 1 161.92 214.24 350.72 350.72 0 0 1 862.08 176.48 371.2 371.2 0 0 1 862.08 214.24C861.44 335.84 777.6 391.52 778.88 556Z"  horiz-adv-x="1024" vert-adv-y="1024"  />

      
      <glyph glyph-name="copy" unicode="&#xE004;" d="M844.16 731.36H396.16A99.84 99.84 0 0 1 296.96 631.52V515.68H179.2A99.2 99.2 0 0 1 80 416.48V-31.52A99.84 99.84 0 0 1 179.2-131.36H627.2A99.84 99.84 0 0 1 727.04-31.52V84.32H844.16A99.2 99.2 0 0 1 944 183.52V631.52A99.84 99.84 0 0 1 844.16 731.36ZM627.2-36.64L179.2-32.8 179.2 415.2H296.96V183.52A99.2 99.2 0 0 1 396.16 84.32H630.4ZM844.16 179.04L396.16 179.04 399.36 630.88H847.36L851.2 627.04Z"  horiz-adv-x="1024" vert-adv-y="1024"  />

      
      <glyph glyph-name="favorite" unicode="&#xE005;" d="M755.84 177.12C766.08 129.12 775.04 84.96 783.36 45.92 787.2 29.28 790.4 12.64 793.6-4S799.36-35.36 801.92-48.8 807.04-73.76 808.96-83.36L812.8-101.28C812.8-113.44 812.8-121.76 804.48-125.6A55.04 55.04 0 0 0 779.52-131.36 51.2 51.2 0 0 0 766.08-128.16L753.28-123.04 512 16.48 394.24-52.64 348.8-78.24 307.84-101.92 275.84-120.48 256-130.08A40.32 40.32 0 0 0 236.8-130.08 51.84 51.84 0 0 0 219.52-123.04 38.4 38.4 0 0 0 208-109.6 23.68 23.68 0 0 0 208-93.6L212.48-75.68C212.48-66.08 217.6-54.56 220.8-41.76S227.2-13.6 231.68 2.4 239.36 34.4 243.84 51.04C253.44 88.8 263.68 131.68 275.2 179.04L177.92 260.32 141.44 291.04 109.44 318.56 85.76 339.04 75.52 348A104.96 104.96 0 0 0 56.96 370.4 36.48 36.48 0 0 0 51.2 396 29.44 29.44 0 0 0 64 415.84 39.04 39.04 0 0 0 82.56 424.8L366.72 450.4 469.76 697.44A70.4 70.4 0 0 0 485.12 723.04 35.84 35.84 0 0 0 512 733.28 27.52 27.52 0 0 0 528 728.8 41.6 41.6 0 0 0 539.52 719.2 69.76 69.76 0 0 0 547.84 708.32L552.96 699.36 655.36 452.32 940.16 428A58.24 58.24 0 0 0 965.76 416.48 23.04 23.04 0 0 0 973.44 396.64 35.2 35.2 0 0 0 965.76 374.24L945.92 350.56Z"  horiz-adv-x="1024" vert-adv-y="1024"  />

      
      <glyph glyph-name="comment" unicode="&#xE006;" d="M851.84 667.36H172.16A76.16 76.16 0 0 1 96.64 591.84V95.84A75.52 75.52 0 0 1 172.16 20.96H351.36L489.6-92.32A37.76 37.76 0 0 1 536.32-92.32L675.84 20.96H851.84A74.88 74.88 0 0 1 926.72 95.84V591.84A74.88 74.88 0 0 1 851.84 667.36M320 285.28A58.88 58.88 0 1 0 378.24 343.52 58.24 58.24 0 0 0 320 285.28H320M512 285.28A58.88 58.88 0 1 0 570.24 343.52H570.24A58.24 58.24 0 0 0 512 285.28M707.84 285.28A58.88 58.88 0 1 0 768 343.52H768A58.88 58.88 0 0 0 709.12 285.28"  horiz-adv-x="1024" vert-adv-y="1024"  />

      
      <glyph glyph-name="eye" unicode="&#xE007;" d="M512-50.08C240-50.08 30.08 257.76 21.12 269.92A52.48 52.48 0 0 0 21.12 327.52C30.08 340.96 240.64 647.52 512 647.52S993.92 339.68 1002.88 327.52A52.48 52.48 0 0 0 1002.88 269.92C993.92 257.76 784-50.08 512-50.08ZM128 300C183.04 228.96 337.92 52.96 512 52.96S840.32 228.96 896 300C840.32 371.04 685.44 547.04 512 547.04S183.68 370.4 128 300ZM512 197.6A102.4 102.4 0 1 1 409.6 300H409.6A102.4 102.4 0 0 1 512 197.6Z"  horiz-adv-x="1024" vert-adv-y="1024"  />

      
      <glyph glyph-name="subtract_hov" unicode="&#xE008;" d="M512 769.3333A469.3333 469.3333 0 1 1 981.3333 300 469.3333 469.3333 0 0 1 512 769.3333ZM810.6667 257.3333H213.3333V342.6667H810.6667Z"  horiz-adv-x="1024" vert-adv-y="1024"  />

      
      <glyph glyph-name="subtract_nor" unicode="&#xE009;" d="M213.3333 342.6667H810.6667V257.3333H213.3333Z"  horiz-adv-x="1024" vert-adv-y="1024"  />

      
      <glyph glyph-name="add_hov" unicode="&#xE00A;" d="M512 769.3333A469.3333 469.3333 0 1 1 981.3333 300 469.3333 469.3333 0 0 1 512 769.3333ZM810.6667 257.3333H554.6667V1.3333H469.3333V257.3333H213.3333V342.6667H469.3333V598.6667H554.6667V342.6667H810.6667Z"  horiz-adv-x="1024" vert-adv-y="1024"  />

      
      <glyph glyph-name="add_nor" unicode="&#xE00B;" d="M810.6667 342.6667L554.6667 342.6667 554.6667 598.6667 469.3333 598.6667 469.3333 342.6667 213.3333 342.6667 213.3333 257.3333 469.3333 257.3333 469.3333 1.3333 554.6667 1.3333 554.6667 257.3333 810.6667 257.3333 810.6667 342.6667Z"  horiz-adv-x="1024" vert-adv-y="1024"  />

      
      <glyph glyph-name="arrow_up" unicode="&#xE00C;" d="M832 108A32 32 0 0 0 809.28 117.28L512 414.88 214.72 117.28A32 32 0 0 0 169.28 162.72L489.28 482.72A32 32 0 0 0 534.72 482.72L854.72 162.72A32 32 0 0 0 854.72 117.28 32 32 0 0 0 832 108Z"  horiz-adv-x="1024" vert-adv-y="1024"  />

      
      <glyph glyph-name="arrow_down" unicode="&#xE00D;" d="M512 108A32 32 0 0 0 489.28 117.28L169.28 437.28A32 32 0 0 0 214.72 482.72L512 185.12 809.28 482.72A32 32 0 0 0 854.72 437.28L534.72 117.28A32 32 0 0 0 512 108Z"  horiz-adv-x="1024" vert-adv-y="1024"  />

      
      <glyph glyph-name="search" unicode="&#xE00E;" d="M913.92-65.44L768 79.2A379.52 379.52 0 1 1 721.28 35.04L867.2-110.88A31.36 31.36 0 0 1 889.6-120.48 32.64 32.64 0 0 1 912.64-110.88 32.64 32.64 0 0 1 913.92-65.44ZM165.12 336.48A320 320 0 1 0 485.12 16.48 320 320 0 0 0 165.12 336.48Z"  horiz-adv-x="1024" vert-adv-y="1024"  />

      
      <glyph glyph-name="view" unicode="&#xE00F;" d="M998.4 318.56C945.92 389.6 747.52 632.8 512 632.8S78.08 388.96 25.6 318.56A30.72 30.72 0 0 1 25.6 281.44C78.08 210.4 275.84-32.8 512-32.8S945.92 211.04 998.4 281.44A30.72 30.72 0 0 1 998.4 318.56ZM512 192.48A107.52 107.52 0 1 0 619.52 300 107.52 107.52 0 0 0 512 192.48Z"  horiz-adv-x="1024" vert-adv-y="1024"  />

      
      <glyph glyph-name="coupond" unicode="&#xE010;" d="M932.48 390.88V556A77.44 77.44 0 0 1 855.04 632.8H168.96A77.44 77.44 0 0 1 91.52 556V390.88A90.88 90.88 0 0 0 91.52 209.12V44A77.44 77.44 0 0 1 168.96-32.8H855.04A77.44 77.44 0 0 1 932.48 44V209.12A90.88 90.88 0 0 0 932.48 390.88ZM666.24 178.4H357.76A33.92 33.92 0 0 0 357.76 246.24H666.24A33.92 33.92 0 0 0 666.24 178.4ZM666.24 353.76H357.76A33.92 33.92 0 1 0 357.76 421.6H666.24A33.92 33.92 0 0 0 666.24 353.76Z"  horiz-adv-x="1024" vert-adv-y="1024"  />

      
      <glyph glyph-name="copylink" unicode="&#xE011;" d="M877.6533 812H146.3467A145.92 145.92 0 0 1 0 665.6533V-65.6533A146.3467 146.3467 0 0 1 146.3467-212H877.6533A146.7733 146.7733 0 0 1 1024-65.6533V665.6533A146.3467 146.3467 0 0 1 877.6533 812ZM493.6533 92.2133L445.0133 44A133.12 133.12 0 0 0 349.8667 4.7467 133.9733 133.9733 0 0 0 215.8933 137.8667 133.12 133.12 0 0 0 256 233.0133L390.8267 367.84A137.3867 137.3867 0 0 0 580.6933 367.84 32 32 0 0 0 580.6933 322.6133 31.5733 31.5733 0 0 0 535.4667 322.6133 72.1067 72.1067 0 0 1 436.0533 322.6133L298.6667 187.7867A70.4 70.4 0 0 1 278.1867 137.8667 69.5467 69.5467 0 0 1 298.6667 86.6667 71.68 71.68 0 0 1 398.08 86.6667L447.1467 135.7333A32 32 0 1 0 492.3733 90.5067ZM768 366.9867L633.1733 232.16A134.4 134.4 0 0 0 443.3067 232.16 32 32 0 0 0 443.3067 277.3867 31.5733 31.5733 0 0 0 488.5333 277.3867 70.4 70.4 0 0 1 587.9467 277.3867L725.3333 412.2133A71.2533 71.2533 0 0 1 745.8133 462.1333 69.5467 69.5467 0 0 1 725.3333 513.3333 72.1067 72.1067 0 0 1 625.92 513.3333L575.1467 462.56A32 32 0 1 0 529.92 507.7867L578.9867 556A133.9733 133.9733 0 0 0 768 556 131.4133 131.4133 0 0 0 807.2533 461.28 133.12 133.12 0 0 0 768 366.9867Z"  horiz-adv-x="1024" vert-adv-y="1024"  />

      
      <glyph glyph-name="facebook" unicode="&#xE012;" d="M877.6533 812H146.3467A146.3467 146.3467 0 0 1 0 665.6533V-65.6533A146.7733 146.7733 0 0 1 146.3467-212H546.9867V184.3733H413.44V339.2533H546.9867V453.1733C546.9867 585.44 627.6267 657.5467 745.8133 657.5467A1002.6667 1002.6667 0 0 0 864.8533 651.1467V513.3333H782.9333C718.9333 513.3333 706.56 482.6133 706.56 437.8133V339.2533H859.7333L839.68 184.8H706.56V-212H877.2267A146.3467 146.3467 0 0 1 1024-65.6533V665.6533A145.92 145.92 0 0 1 877.6533 812Z"  horiz-adv-x="1024" vert-adv-y="1024"  />

      
      <glyph glyph-name="twitter" unicode="&#xE013;" d="M877.6533 812H146.3467A146.7733 146.7733 0 0 1 0 665.6533V-65.6533A146.7733 146.7733 0 0 1 146.3467-212H877.6533A146.7733 146.7733 0 0 1 1024-65.6533V665.6533A146.7733 146.7733 0 0 1 877.6533 812ZM787.6267 441.2267C787.6267 435.2533 787.6267 428.8533 787.6267 422.88A404.9067 404.9067 0 0 0 164.6933 81.5467 304.64 304.64 0 0 1 198.8267 81.5467 286.2933 286.2933 0 0 1 375.4667 142.1333 142.08 142.08 0 0 0 243.2 239.4133 162.56 162.56 0 0 1 307.2 241.9733 142.08 142.08 0 0 0 193.28 381.4933V385.3333A141.2267 141.2267 0 0 1 257.28 366.9867 142.9333 142.9333 0 0 0 194.1333 483.8933 137.8133 137.8133 0 0 0 213.3333 556 403.6267 403.6267 0 0 1 506.4533 406.6667 142.5067 142.5067 0 0 0 749.2267 534.6667 283.3067 283.3067 0 0 1 839.68 568.8 142.5067 142.5067 0 0 0 776.96 490.72 280.7467 280.7467 0 0 1 858.88 513.3333 293.12 293.12 0 0 0 787.6267 441.2267Z"  horiz-adv-x="1024" vert-adv-y="1024"  />

      
      <glyph glyph-name="headPortrait_default" unicode="&#xE014;" d="M512 812A512 512 0 1 1 512-212 512 512 0 1 1 512 812ZM512 530.1774A116.4243 116.4243 0 0 1 395.5757 413.753H395.5757A116.4243 116.4243 0 0 1 512 297.5513H512A116.4243 116.4243 0 0 1 628.4243 413.753H628.4243A116.4243 116.4243 0 0 1 512 530.1774ZM520.2365 267.7217H495.7496C385.5583 261.7113 267.1304 223.2 267.1304 156.4174V90.7478A20.9252 20.9252 0 0 1 288.0557 69.8226H735.9443A20.9252 20.9252 0 0 1 756.8696 90.7478V159.5339C752.8626 224.9809 630.4278 263.7148 520.2365 267.7217Z"  horiz-adv-x="1024" vert-adv-y="1024"  />

      
      <glyph glyph-name="next_left" unicode="&#xE015;" d="M604.928 95.2A18.944 18.944 0 0 1 618.496 100.832 19.2 19.2 0 0 1 618.496 127.968L446.464 300 618.496 472.032A19.2 19.2 0 0 1 618.496 499.168 19.712 19.712 0 0 1 591.104 499.168L405.504 313.568A19.2 19.2 0 0 1 405.504 286.432L591.104 100.832A19.2 19.2 0 0 1 604.928 95.2ZM512-212A512 512 0 1 0 1024 300 512 512 0 0 0 512-212ZM512 786.4A486.4 486.4 0 1 1 998.4 300 486.4 486.4 0 0 1 512 786.4Z"  horiz-adv-x="1024" vert-adv-y="1024"  />

      
      <glyph glyph-name="next_right" unicode="&#xE016;" d="M419.328 95.2A19.2 19.2 0 0 0 405.504 127.968L577.536 300 405.504 472.032A19.2 19.2 0 0 0 405.504 499.168 19.712 19.712 0 0 0 432.896 499.168L618.496 313.568A19.2 19.2 0 0 0 618.496 286.432L432.896 100.832A18.944 18.944 0 0 0 419.328 95.2ZM512-212A512 512 0 1 0 1024 300 512 512 0 0 0 512-212ZM512 786.4A486.4 486.4 0 1 1 998.4 300 486.4 486.4 0 0 1 512 786.4Z"  horiz-adv-x="1024" vert-adv-y="1024"  />

      
      <glyph glyph-name="money" unicode="&#xE017;" d="M195.2 428A222.08 222.08 0 0 1 214.4 404.32 320 320 0 0 1 327.68 331.36 520.96 520.96 0 0 1 378.24 315.36 499.84 499.84 0 0 1 478.72 300H542.72A512 512 0 0 1 643.84 315.36C661.12 319.84 677.76 325.6 693.76 331.36A320 320 0 0 1 807.04 403.68 222.08 222.08 0 0 1 826.24 427.36 157.44 157.44 0 0 1 840.96 454.24 128 128 0 0 1 852.48 507.36C854.4 620 704 716 512 716S169.6 620 169.6 507.36A128 128 0 0 1 181.12 454.24 120.32 120.32 0 0 1 195.2 428ZM515.2 32.48A478.08 478.08 0 0 0 181.12 146.4 131.84 131.84 0 0 1 168.96 92.64C168.96-20 320-116 512-116S854.4-22.56 854.4 92.64A128 128 0 0 1 842.88 146.4 478.08 478.08 0 0 0 512 31.84ZM768 300L734.72 284A375.68 375.68 0 0 0 694.4 268.64 576 576 0 0 0 512 239.84 579.84 579.84 0 0 0 327.68 268.64L287.36 284C276.48 289.12 264.96 294.24 256 300A339.84 339.84 0 0 0 181.76 353.76 152.32 152.32 0 0 1 168.96 300 131.84 131.84 0 0 1 181.12 246.24 119.04 119.04 0 0 1 195.84 220 128 128 0 0 1 215.04 196.32 414.72 414.72 0 0 1 512 91.36 414.72 414.72 0 0 1 808.96 196.32 128 128 0 0 1 828.16 220 152.32 152.32 0 0 1 842.88 246.24 131.84 131.84 0 0 1 855.04 300 142.08 142.08 0 0 1 843.52 353.76 339.84 339.84 0 0 0 768 300Z"  horiz-adv-x="1024" vert-adv-y="1024"  />

      
      <glyph glyph-name="show" unicode="&#xE018;" d="M953.6 338.4C904.96 399.84 728.32 600.8 512 600.8S119.04 399.84 70.4 338.4C52.48 316 52.48 284 70.4 261.6 119.68 200.16 295.68-0.8 512-0.8S904.96 200.16 953.6 261.6C972.16 284 972.16 316 953.6 338.4ZM512 76C339.2 76 190.08 237.28 137.6 300 190.08 363.36 339.84 524 512 524S833.92 362.72 886.4 300C833.92 236.64 684.8 76 512 76ZM512 435.68C437.12 435.68 376.32 374.88 376.32 300S437.12 164.32 512 164.32 647.68 225.12 647.68 300 586.88 435.68 512 435.68ZM512 241.12C479.36 241.12 453.12 267.36 453.12 300 453.12 332 479.36 358.88 512 358.88 544 358.88 570.88 332.64 570.88 300 570.88 267.36 544 241.12 512 241.12Z"  horiz-adv-x="1024" vert-adv-y="1024"  />

      
      <glyph glyph-name="hide" unicode="&#xE019;" d="M804.48 635.36C788.48 649.44 764.16 647.52 750.08 631.52L215.68 18.4C201.6 2.4 203.52-21.92 219.52-36 226.56-42.4 235.52-45.6 244.48-45.6 255.36-45.6 265.6-41.12 273.28-32.16L808.32 580.96C822.4 597.6 820.48 621.92 804.48 635.36ZM298.24 151.52C224 202.08 166.4 265.44 137.6 300 190.08 363.36 339.84 524 512 524 545.28 524 577.92 517.6 608.64 508L662.4 569.44C615.68 588.64 565.12 600.8 512 600.8 295.68 600.8 119.04 399.84 70.4 338.4 52.48 316 52.48 284 70.4 261.6 96.64 228.32 160.64 154.72 247.68 93.92L298.24 151.52ZM953.6 338.4C927.36 371.68 864 444 778.24 504.8L727.68 446.56C801.28 396 858.24 333.92 886.4 300 833.92 236.64 684.8 76 512 76 479.36 76 448.64 82.4 417.92 92L363.52 29.92C410.24 11.36 459.52-0.8 512-0.8 728.32-0.8 904.96 200.16 953.6 261.6 971.52 284 971.52 316 953.6 338.4Z"  horiz-adv-x="1024" vert-adv-y="1024"  />

      
      <glyph glyph-name="date" unicode="&#xE01A;" d="M905.4197-211.5847H136.5803A136.7337 136.7337 0 0 0 0-75.0044V567.2297A136.7337 136.7337 0 0 0 136.5803 703.81H905.4197A136.7337 136.7337 0 0 0 1042 567.2297V-75.0044A136.7337 136.7337 0 0 0 905.4197-211.5847ZM136.5803 611.7334A44.5804 44.5804 0 0 1 92.0766 567.2297V-75.0044A44.5804 44.5804 0 0 1 136.5803-119.5081H905.4197A44.5804 44.5804 0 0 1 949.9234-75.0044V567.2297A44.5804 44.5804 0 0 1 905.4197 611.7334ZM313.0604 523.4934A46.0383 46.0383 0 0 0 267.0221 569.5317V765.9617A46.0383 46.0383 0 0 0 313.0604 812 46.0383 46.0383 0 0 0 359.0987 765.9617V569.5317A46.0383 46.0383 0 0 0 313.0604 523.4934ZM728.9396 523.4934A46.0383 46.0383 0 0 0 682.9013 569.5317V765.9617A46.0383 46.0383 0 0 0 728.9396 812 46.0383 46.0383 0 0 0 774.9779 765.9617V569.5317A46.0383 46.0383 0 0 0 728.9396 523.4934ZM739.6819 299.4404H302.3181A46.0383 46.0383 0 0 0 256.2798 345.4786 46.0383 46.0383 0 0 0 302.3181 391.5169H739.6819A46.0383 46.0383 0 0 0 785.7202 345.4786 46.0383 46.0383 0 0 0 739.6819 299.4404ZM739.6819 70.7835H302.3181A46.0383 46.0383 0 0 0 256.2798 116.8218 46.0383 46.0383 0 0 0 302.3181 162.8601H739.6819A46.0383 46.0383 0 0 0 785.7202 116.8218 46.0383 46.0383 0 0 0 739.6819 70.7835Z"  horiz-adv-x="1042" vert-adv-y="1024"  />

      
      <glyph glyph-name="camera" unicode="&#xE01B;" d="M745.4142 812A96.8737 96.8737 0 0 0 837.9698 743.724L868.197 645.9541H954.8048A152.1952 152.1952 0 0 0 1107 493.7589V-59.7819A152.1952 152.1952 0 0 0 954.8048-211.977H152.0322A152.1952 152.1952 0 0 0-0.1629-59.7819V493.7589A152.1952 152.1952 0 0 0 152.0322 645.9541H238.6401L268.8673 743.724A96.8737 96.8737 0 0 0 361.5858 812H745.4142ZM553.5407 452.2067A207.5981 207.5981 0 1 1 761.1389 244.6085 207.5981 207.5981 0 0 1 553.5407 452.2067ZM553.5407 120.1148A124.5752 124.5752 0 1 1 428.9656 244.69 124.5752 124.5752 0 0 1 553.5407 120.1148Z"  horiz-adv-x="1107" vert-adv-y="1024"  />

      
      <glyph glyph-name="bottom" unicode="&#xE01C;" d="M484.864 169.952A38.4 38.4 0 0 1 539.136 169.952L897.536 528.352A38.4 38.4 0 1 1 843.264 582.624L512 248.8 180.736 582.624A38.4 38.4 0 1 1 126.464 528.352ZM870.4 82.912H153.6A38.4 38.4 0 0 1 153.6 6.112H870.4A38.4 38.4 0 0 1 870.4 82.912Z"  horiz-adv-x="1024" vert-adv-y="1024"  />

      
      <glyph glyph-name="top" unicode="&#xE01D;" d="M484.864 430.048A38.4 38.4 0 0 0 539.136 430.048L897.536 71.648A38.4 38.4 0 0 0 843.264 17.376L512 348.64 180.736 17.376A38.4 38.4 0 0 0 126.464 71.648ZM870.4 517.088H153.6A38.4 38.4 0 0 0 153.6 593.888H870.4A38.4 38.4 0 0 0 870.4 517.088Z"  horiz-adv-x="1024" vert-adv-y="1024"  />

      
      <glyph glyph-name="Updeals_menu" unicode="&#xE01E;" d="M170.6667 612.7467H853.3333V548.7467H170.6667ZM170.6667 51.2533H853.3333V-12.7467H170.6667ZM170.6667 332H853.3333V268H170.6667Z"  horiz-adv-x="1024" vert-adv-y="1024"  />

      
      <glyph glyph-name="Updeals_mobiel_search" unicode="&#xE01F;" d="M485.12-15.7333A352 352 0 1 0 837.12 336.2667 352.4267 352.4267 0 0 0 485.12-15.7333ZM485.12 624.2667A288 288 0 1 1 773.12 336.2667 288 288 0 0 1 485.12 624.2667ZM874.24-100.64A31.5733 31.5733 0 0 0 851.6267-91.2533L700.5867 59.7867A32 32 0 0 0 745.8133 105.0133L896-46.0267A32 32 0 0 0 896-91.2533 31.5733 31.5733 0 0 0 874.24-100.64Z"  horiz-adv-x="1024" vert-adv-y="1024"  />

      
      <glyph glyph-name="mobeil_notification" unicode="&#xE020;" d="M801.7067 41.0133H737.7067V407.0933A225.7067 225.7067 0 1 1 286.2933 407.0933V41.0133H222.2933V407.0933A289.7067 289.7067 0 1 0 801.7067 407.0933ZM866.1333 15.84H157.8667A32 32 0 1 0 157.8667 79.84H866.1333A32 32 0 0 0 866.1333 15.84ZM512-96.8A128 128 0 0 0 384 31.2 32 32 0 0 0 448 31.2 63.1467 63.1467 0 0 1 576 31.2 32 32 0 0 0 640 31.2 128 128 0 0 0 512-96.8Z"  horiz-adv-x="1024" vert-adv-y="1024"  />

      
      <glyph glyph-name="updealslogo-mobile" unicode="&#xE022;" d="M214.644 432.8078H214.644V200.2464C214.644 172.0904 237.3151 149.4193 265.4711 149.4193H452.6904C480.8464 149.4193 503.5175 172.0904 503.5175 200.2464V432.8078C503.5175 441.5837 498.7639 449.6283 491.4506 453.6506L378.4608 518.0072V612.7139C378.4608 621.8554 371.1476 629.1687 362.006 629.1687H355.7898C346.6482 629.1687 339.3349 621.8554 339.3349 612.7139V518.0072L226.3452 453.6506C218.6663 449.2627 214.2783 441.2181 214.2783 432.8078ZM359.0807 441.9494H359.0807C382.1175 441.9494 401.1319 423.3006 401.1319 399.8982S382.4831 357.847 359.0807 357.847 317.0295 376.4958 317.0295 399.8982C317.0295 422.9349 336.044 441.9494 359.0807 441.9494ZM623.8205 629.1687H487.794C462.1976 629.1687 441.7205 608.3259 441.7205 583.0952V569.5657L622.3578 571.394V178.6723C622.3578 104.0771 562.0235 43.7428 487.4283 43.7428H231.0988C156.5036 43.7428 96.1693 104.0771 96.1693 178.6723V569.5657H273.15V583.0952C273.15 608.6916 252.6729 629.1687 227.0765 629.1687H88.4904C59.9687 629.1687 36.5663 606.1319 36.5663 577.6102V178.6723C36.5663 71.1675 123.594-15.8602 231.0988-15.8602H487.0627C594.5675-15.8602 681.5952 71.1675 681.5952 178.6723V571.394C681.5952 603.2066 655.6331 629.1687 623.8205 629.1687ZM2648.4946 580.9012H2624.3608V138.0837H2685.7922V543.238C2685.7922 564.0807 2668.9717 580.9012 2648.1289 580.9012ZM947.4319 279.5952H947.4319V428.7855C947.4319 449.6283 930.6114 466.4488 909.7687 466.4488H885.6349V279.5952C885.6349 203.903 942.6783 140.2777 1017.6392 131.1361V192.5675C976.6849 201.3434 947.0663 237.544 947.0663 279.5952ZM1125.144 428.7855H1125.144V279.5952C1125.144 237.544 1095.5253 201.3434 1054.5711 192.5675V131.1361C1129.8976 140.2777 1186.5753 203.903 1186.5753 279.5952V466.0831H1162.4416C1141.5988 466.0831 1124.7783 449.2627 1124.7783 428.4199ZM1377.0855 469.7398C1372.3319 469.7398 1367.5783 469.7398 1362.8247 469.0084H1362.8247C1286.0355 459.5012 1228.9922 393.3163 1230.4548 316.1614V44.4741C1230.4548 25.8253 1245.447 10.8331 1264.0958 10.8331H1291.8861V319.4524C1291.1548 361.138 1319.6765 397.7042 1360.2651 406.8458 1406.7042 416.353 1451.6807 386.3687 1461.188 339.9295 1462.2849 334.4446 1463.0163 328.594 1463.0163 323.109V286.9084C1463.0163 239.738 1424.6217 201.3434 1377.4512 201.3434H1326.6241V139.912H1377.4512C1458.6283 139.912 1524.4476 205.7313 1524.4476 286.9084V323.109C1524.4476 404.2861 1458.2627 470.1054 1377.0855 470.1054ZM1830.1416 594.0651H1803.8139V285.4458C1804.5452 243.7602 1776.0235 207.194 1735.4349 198.0524 1688.9958 188.9108 1644.0193 218.8952 1634.8777 265.3343 1633.7807 270.8193 1633.4151 276.3042 1633.0494 281.7892V317.9898C1633.0494 365.1602 1671.444 403.5548 1718.6145 403.5548H1767.6133V464.9861H1718.6145C1637.4373 464.9861 1571.6181 399.1669 1571.6181 317.9898V288.3711C1570.1554 211.2163 1627.1988 145.397 1703.988 135.5241 1784.7994 127.4795 1856.8349 186.7169 1864.8795 267.5283 1865.2452 272.2819 1865.6108 277.0355 1865.6108 281.7892V558.9614C1865.6108 578.3416 1849.8873 594.4307 1830.1416 594.4307ZM2439.3355 469.0084C2358.5241 477.053 2286.4886 417.8157 2278.444 337.0042 2278.0783 332.2506 2277.7127 327.497 2277.7127 322.7434V286.5428C2277.7127 205.3657 2343.5319 139.5464 2424.709 139.5464H2473.7078V200.9777H2424.709C2377.5386 200.9777 2339.144 239.3723 2339.144 286.5428V319.4524C2338.4127 361.138 2366.9343 397.7042 2407.5229 406.4801 2453.962 415.6217 2498.9386 385.6373 2508.4458 339.1982 2509.5428 333.7133 2509.9084 328.2283 2509.9084 322.7434V139.5464H2571.3398V316.1614C2572.8024 393.3163 2515.759 459.1355 2438.9699 469.0084ZM2439.3355 469.0084L2439.3355 469.0084 2439.7012 469.0084 2439.3355 469.0084ZM2075.1355 468.6428H2075.1355C1984.4512 470.8367 1909.4904 399.1669 1907.2964 308.4825 1905.1024 217.7982 1976.7723 142.8373 2067.4566 140.6434 2133.2759 139.1807 2193.9759 177.2096 2221.0349 237.1783H2148.6337C2112.0675 194.7614 2047.7108 190.0078 2005.294 226.5741 1990.6675 239.0066 1980.0633 255.4614 1974.5783 273.7446H2233.1018C2240.0494 324.206 2223.9602 375.3988 2189.588 413.062 2159.238 444.1434 2118.6494 463.8892 2075.5012 468.6428ZM1974.2127 335.1759C1990.6675 388.9283 2047.7108 418.9127 2101.8289 402.4578 2134.0072 392.5849 2159.238 367.3542 2169.1108 335.1759H1974.2127ZM2825.4753 269.3566H2841.1988V329.3253H2821.8187C2802.0729 329.3253 2786.3494 345.0488 2786.3494 364.7946 2786.3494 384.5404 2802.0729 400.2639 2821.8187 400.2639H2957.4795C2977.591 400.2639 2994.0458 416.7187 2994.0458 436.8301V460.2325H2891.6602V466.4488C2891.6602 479.6127 2881.056 489.8512 2868.2578 489.8512H2836.4452V459.8669H2822.1843C2769.5289 459.8669 2726.7464 417.0843 2726.7464 364.4289 2726.7464 358.2127 2727.4777 351.9964 2728.5747 345.7801 2738.8133 300.438 2779.4018 268.6253 2825.841 269.3566ZM3010.5006 253.2675H3010.5006C3000.262 298.6096 2959.6735 330.4223 2913.2343 329.691H2885.8096V269.7223H2917.2566C2937.0024 269.7223 2952.7259 253.9988 2952.7259 234.253S2937.0024 198.7837 2917.2566 198.7837H2781.5958C2761.4843 198.7837 2745.0295 182.3289 2745.0295 162.2175V138.8151H2836.0795V133.3301C2836.0795 120.5319 2846.6837 109.9277 2859.4819 109.9277H2891.2946V139.1807H2916.891C2969.5464 139.1807 3012.3289 181.9633 3012.3289 234.9843 3012.3289 241.2006 3011.5976 247.4169 3010.5006 253.6331Z"  horiz-adv-x="3035" vert-adv-y="1024"  />

      
      <glyph glyph-name="updealslogo-login" unicode="&#xE023;" d="M357.0365 427.2089V180.3822C357.0365 150.4719 381.2881 126.2204 411.1983 126.2204H609.7915C639.7017 126.2204 663.9532 150.4719 663.9532 180.3822V427.2089C663.9532 436.3706 659.1029 444.9934 651.0191 449.5742L531.1087 518.0175V618.7961C531.1087 628.2272 523.2943 636.0416 513.8632 636.0416H507.3961C497.9649 636.0416 490.1505 628.2272 490.1505 618.7961V518.0175L370.2402 449.5742C362.1563 444.9934 357.306 436.6401 357.306 427.2089ZM510.3602 437.179H510.3602C534.8812 437.179 555.0908 417.2388 555.0908 392.4484S535.1506 347.7178 510.3602 347.7178 465.6295 367.6579 465.6295 392.4484 485.5697 437.179 510.3602 437.179ZM791.1391 636.0416H646.7077C619.4921 636.0416 597.6657 613.9458 597.6657 586.9996V572.7182L789.2528 574.3349V157.4779C789.2528 78.5257 725.121 14.3938 646.1688 14.3938H374.2821C295.0604 14.3938 231.198 78.5257 231.198 157.4779V572.7182H419.2822V586.9996C419.2822 614.2152 397.1863 636.0416 370.2402 636.0416H223.1142C192.665 636.0416 168.144 611.5206 168.144 581.0715V157.4779C168.144 43.4957 260.5693-48.9296 374.5515-48.9296H646.4382C760.4205-48.9296 852.8458 43.4957 852.8458 157.4779V574.3349C852.8458 608.2871 825.3607 635.7722 791.4085 635.7722ZM2940.9032 584.5745H2915.5738V114.3641H2980.7835V544.6942C2980.7835 566.79 2962.9991 584.5745 2940.9032 584.5745ZM1134.972 264.7236H1134.972V423.167C1134.972 445.2628 1117.1875 463.0473 1095.0917 463.0473H1069.7623V264.7236C1069.7623 184.4241 1130.1217 116.7892 1209.8823 107.0886V172.5678C1166.2295 181.7295 1134.972 220.2625 1134.972 264.9931ZM1323.5951 423.167H1323.5951V264.7236C1323.5951 219.993 1292.3375 181.7295 1248.6848 172.2983V106.8192C1328.4454 116.5198 1388.5353 184.1546 1388.8048 264.4542V462.7778H1363.4754C1341.3795 462.7778 1323.5951 444.9934 1323.5951 422.8975ZM1591.4398 466.8198C1586.3201 466.8198 1581.2003 466.8198 1576.35 466.0114H1576.35C1494.9726 455.5024 1434.3438 385.7118 1435.6911 303.5261V14.9328C1435.6911-4.7379 1451.5893-20.9056 1471.5295-20.9056H1501.1702V306.7596C1500.3618 350.9513 1530.811 389.7538 1573.9248 399.4544 1623.2363 409.4245 1671.2005 377.628 1680.9011 328.3165 1681.9789 322.3884 1682.7873 316.4602 1682.7873 310.5321V271.9991C1682.7873 221.8792 1642.0986 181.1905 1591.9788 181.1905H1538.0865V115.9808H1591.7093C1677.937 115.9808 1747.7275 185.7714 1747.7275 271.9991V310.5321C1747.7275 396.7598 1677.6675 466.8198 1591.1704 466.5503ZM2072.1592 598.8559H2044.4047V271.1907C2045.2131 226.999 2014.7639 188.1965 1971.6501 178.4959 1922.3386 168.5258 1874.3745 200.3223 1864.6738 249.6338 1863.596 255.5619 1862.7876 261.4901 1862.7876 267.4182V305.9512C1862.7876 356.0711 1903.4763 396.7598 1953.5962 396.7598H2005.3328V462.2389H1953.5962C1867.3685 462.2389 1797.5779 392.4484 1797.5779 306.2207H1797.5779V274.6937C1796.2306 192.7774 1856.8595 122.7174 1937.9674 112.4778 2023.9256 104.1245 2100.4527 166.6396 2108.806 252.5978 2109.3449 257.7176 2109.6144 262.5679 2109.6144 267.6877V561.4008C2109.6144 582.1493 2092.9078 598.8559 2072.1592 598.8559ZM2719.1364 466.0114H2719.1364C2633.1782 474.3647 2556.6511 411.8496 2548.2978 325.8914 2547.7588 320.7716 2547.4894 315.6518 2547.4894 310.8015V272.2685C2547.4894 186.0408 2617.2799 116.2503 2703.5076 116.2503H2755.5137V181.46H2703.5076C2653.3878 181.46 2612.6991 222.1487 2612.6991 272.2685V307.2985C2611.8907 351.4902 2642.3398 390.2927 2685.4537 399.9933 2734.7652 409.9634 2782.7293 377.8975 2792.4299 328.8555 2793.5078 322.9273 2794.3162 316.9992 2794.3162 311.071V116.5198H2859.5258V304.065C2860.8732 385.9813 2800.2443 456.0413 2718.8669 466.2808ZM2332.1896 465.7419H2332.1896C2235.9918 467.8976 2156.2312 391.9095 2153.8061 295.7117 2151.6504 199.5139 2227.6385 119.7533 2323.8363 117.3282 2393.8963 115.7114 2458.0282 156.1306 2486.8605 219.993H2409.7945C2370.7226 174.9929 2302.5488 169.8732 2257.5488 208.9451 2242.1895 222.1487 2230.8721 239.3942 2224.9439 258.7955H2499.2558C2499.2558 309.1848 2501.142 354.7238 2453.1778 406.7298 2420.8425 439.8736 2377.9981 460.6222 2331.9202 465.4725ZM2225.2134 324.2746C2242.7284 381.4005 2303.3572 413.4664 2360.4831 395.6819 2394.7047 385.1729 2421.3814 358.4962 2431.8904 324.2746H2225.2134ZM3128.7179 254.2146H3145.4245V317.8075H3124.9455C3104.1969 317.8075 3087.2208 334.7836 3087.2208 355.5322S3104.1969 393.2568 3124.9455 393.2568H3269.1074C3290.3948 393.2568 3307.9098 410.5023 3307.9098 432.0592V456.8497H3199.3168V463.3168C3199.3168 477.0593 3187.9995 488.3767 3174.2569 488.3767H3140.5742V456.5802H3125.2149C3069.1669 456.5802 3023.8974 411.0412 3023.8974 354.9932 3023.8974 348.2567 3024.4363 341.5202 3025.7836 335.0531 3036.5621 287.0889 3079.6759 253.1368 3128.9874 253.9452ZM3325.1554 236.6996H3325.1554C3314.3769 284.6638 3271.2631 318.6159 3221.9516 317.8075H3192.5803V254.2146H3225.9935C3246.7421 254.2146 3263.7182 237.2385 3263.7182 216.49S3246.7421 178.7654 3225.9935 178.7654H3081.8316C3060.2747 178.7654 3043.0292 161.5198 3043.0292 139.9629V115.1725H3139.7658V109.2443C3139.7658 95.5018 3150.8138 84.1844 3164.8258 84.1844H3198.7779V115.1725H3225.9935C3282.0415 115.1725 3327.3111 160.7115 3327.3111 216.7595 3327.3111 223.496 3326.5027 229.9631 3325.4248 236.6996Z"  horiz-adv-x="3503" vert-adv-y="1024"  />

      
      <glyph glyph-name="updealslogo-sidebar" unicode="&#xE024;" d="M275.2 471.9467V170.2933C275.2 133.6 305.0667 104.16 341.3333 104.16H585.8133C622.5067 104.16 652.3733 133.6 652.3733 170.2933V471.9467C652.3733 483.04 646.4 493.7067 636.5867 499.2533L488.96 582.88V705.3333C488.96 717.28 479.5733 726.6667 467.6267 726.6667H459.52C447.5733 726.6667 438.1867 717.28 438.1867 705.3333V582.4533L290.56 498.8267C280.7467 493.28 274.7733 483.04 274.7733 471.52ZM463.7867 483.8933C494.08 483.8933 517.9733 459.1467 517.9733 428.8533 517.9733 398.56 493.2267 374.6667 462.9333 374.6667 433.0667 374.6667 408.7467 399.4133 408.7467 429.28 408.7467 459.5733 433.4933 483.8933 463.7867 483.8933ZM809.3867 726.6667H631.8933C598.6133 726.6667 571.7333 700.2133 571.7333 666.9333V649.44L807.68 651.5733V142.56C807.68 45.7067 728.7467-32.8 631.4667-32.3733H296.5333C199.68-32.3733 120.7467 45.7067 120.32 142.56H120.32V649.44H351.5733V666.9333C351.5733 700.2133 324.2667 726.6667 291.4133 726.6667H110.08C72.96 726.6667 42.6667 696.8 42.6667 659.68V142.56C43.0933 2.6133 157.0133-110.0267 296.5333-109.6H631.04C770.9867-110.0267 884.48 2.6133 884.9067 142.56V651.5733C884.9067 693.3867 850.7733 726.6667 809.3867 726.6667ZM3454.2933 663.9467H3423.1467V89.6533H3503.36V615.3067C3503.36 642.1867 3481.1733 663.9467 3454.2933 663.9467ZM1232.2133 273.5467H1232.2133V466.8267C1232.2133 493.7067 1210.0267 515.4667 1183.1467 515.4667H1152V273.5467C1152.4267 174.9867 1226.6667 92.2133 1324.3733 81.12V160.9067C1271.04 172 1232.64 218.9333 1232.2133 273.5467ZM1464.7467 466.8267V273.5467C1464.7467 218.9333 1425.92 172 1372.5867 160.9067V81.12C1470.2933 92.64 1544.5333 174.9867 1544.96 273.5467V515.4667H1513.8133C1486.9333 515.4667 1464.7467 493.7067 1464.7467 466.8267ZM1793.7067 520.16C1787.7333 520.16 1781.3333 520.16 1775.36 519.3067H1775.36C1675.52 506.9333 1601.28 421.6 1602.56 320.9067V-31.52C1602.56-55.84 1622.1867-75.04 1646.5067-75.04H1682.7733V325.1733C1681.92 379.36 1719.4667 426.72 1772.3733 438.24 1832.96 450.6133 1891.84 411.7867 1904.2133 351.2 1905.4933 343.9467 1906.3467 336.6933 1906.3467 329.44V282.5067C1906.3467 221.0667 1856.4267 171.5733 1794.9867 171.5733H1728.8533V91.7867H1794.9867C1900.8 91.7867 1986.56 176.6933 1986.9867 282.5067V329.44C1986.56 435.2533 1899.9467 520.5867 1794.1333 520.16ZM2385.4933 681.44H2351.36V281.2267C2352.2133 227.04 2314.6667 179.68 2261.76 168.16 2201.1733 155.7867 2142.2933 194.6133 2129.92 255.2 2128.64 262.4533 2127.7867 269.7067 2127.7867 276.96V323.8933C2127.7867 385.3333 2177.7067 434.8267 2239.1467 434.8267H2303.1467V514.6133H2239.1467C2133.3333 514.6133 2047.5733 429.7067 2047.1467 323.8933V285.4933C2045.8667 184.8 2120.1067 99.4667 2219.9467 87.52 2325.3333 76.8533 2419.2 153.2267 2430.2933 258.6133 2430.72 264.5867 2431.1467 270.9867 2431.1467 276.96V635.36C2431.1467 660.96 2410.24 681.44 2385.0667 681.0133ZM3181.2267 519.3067H3181.2267C3075.84 529.9733 2981.9733 453.1733 2970.88 347.7867 2970.4533 341.8133 2970.0267 335.4133 2970.0267 329.44V282.5067C2970.0267 176.6933 3056.2133 91.36 3162.0267 91.7867H3226.0267V171.5733H3162.0267C3100.5867 171.5733 3050.6667 221.0667 3050.24 282.5067H3050.24V325.1733C3049.3867 379.36 3086.9333 426.72 3139.84 438.24 3200.4267 450.6133 3259.3067 411.36 3271.68 351.2 3272.96 343.9467 3273.8133 336.6933 3273.8133 329.44V91.7867H3354.0267V320.9067C3355.3067 421.6 3281.0667 506.9333 3181.2267 519.3067ZM2705.0667 518.88H2705.0667C2587.3067 521.0133 2490.4533 427.5733 2488.32 309.8133 2486.1867 192.0533 2580.0533 95.2 2697.3867 93.0667 2782.72 91.36 2860.3733 140.8533 2895.36 218.9333H2800.64C2752.4267 163.4667 2667.9467 157.92 2612.48 206.1333 2594.1333 222.3467 2580.48 242.8267 2573.2267 266.2933H2910.72C2919.68 332 2898.7733 398.1333 2853.9733 446.7733 2813.8667 487.3067 2761.3867 512.48 2704.64 518.4533ZM2573.6533 346.08C2595.84 416.48 2670.9333 455.3067 2740.9067 433.12 2782.2933 419.8933 2814.72 387.4667 2827.9467 346.08H2573.6533ZM3685.12 260.32H3705.6V337.9733H3680.4267C3654.8267 337.12 3633.92 357.1733 3633.0667 382.3467S3652.2667 428.8533 3677.44 429.7067C3678.2933 429.7067 3679.1467 429.7067 3680.4267 429.7067H3857.4933C3883.9467 429.7067 3905.28 450.6133 3905.28 477.0667V507.36H3771.7333V515.4667C3771.7333 532.5333 3758.08 546.1867 3741.0133 546.1867H3699.2V507.36H3680.4267C3611.7333 507.36 3556.2667 452.32 3555.84 383.6267 3555.84 375.52 3556.6933 366.9867 3558.4 358.88 3572.0533 300 3624.96 258.6133 3685.5467 259.8933ZM3927.04 238.9867C3913.3867 297.8667 3860.48 339.2533 3799.8933 337.9733H3763.6267V260.32H3804.5867C3829.76 261.1733 3851.0933 241.12 3851.9467 215.9467S3832.7467 169.44 3807.5733 168.5867C3806.72 168.5867 3805.8667 168.5867 3804.5867 168.5867H3627.52C3601.0667 168.5867 3579.7333 147.2533 3579.7333 121.2267V90.9333H3698.7733V83.68C3698.7733 66.6133 3712.4267 52.96 3729.4933 52.96H3771.3067V90.9333H3805.0133C3873.7067 90.9333 3929.1733 145.9733 3929.6 214.6667 3929.6 223.2 3928.7467 231.3067 3927.04 239.4133Z"  horiz-adv-x="3968" vert-adv-y="1024"  />

      
      <glyph glyph-name="nomal_label" unicode="&#xE025;" d="M807.6491-4.8618H240.0427C234.9245-4.8618 230.83-0.7673 230.83 4.3509H230.83V572.4691C230.83 577.5873 234.9245 581.6818 240.0427 581.6818H807.6491C810.72 581.6818 813.7909 580.1464 815.3264 577.5873L993.9509 293.5282C995.9982 290.4573 995.9982 286.8745 993.9509 283.8036L815.3264-0.2555C813.7909-2.8145 810.72-4.35 807.6491-4.35"  horiz-adv-x="1126" vert-adv-y="1024"  />

      
      <glyph glyph-name="label_2" unicode="&#xE026;" d="M815.3264 575.54C813.7909 578.0991 810.72 579.6345 807.6491 579.6345H240.0427C234.9245 579.6345 230.83 575.54 230.83 570.4218V2.3036C230.83-2.8145 234.9245-6.9091 240.0427-6.9091H807.6491C810.72-6.9091 813.7909-5.3736 815.3264-2.8145L993.9509 281.2445C995.9982 284.3155 995.9982 287.8982 993.9509 290.9691L815.3264 575.0282ZM676.1118 121.0455H442.2109V168.6445L548.1573 272.5436C593.7091 317.0718 605.4809 333.9618 605.4809 354.9464 605.4809 381.0491 584.4964 399.4745 554.8109 399.4745 523.0782 399.4745 501.5818 379.0018 501.5818 348.8045V347.2691H438.6282V348.2927C438.6282 411.2464 486.7391 453.7273 556.8582 453.7273S672.0173 414.8291 672.0173 359.0409C672.0173 323.7255 653.08 293.5282 596.78 240.2991L534.85 180.9282V176.8336H677.1355V120.5336Z"  horiz-adv-x="1126" vert-adv-y="1024"  />

      
      <glyph glyph-name="label_1" unicode="&#xE027;" d="M815.3264 575.54C813.7909 578.0991 810.72 579.6345 807.6491 579.6345H240.0427C234.9245 579.6345 230.83 575.54 230.83 570.4218V2.3036C230.83-2.8145 234.9245-6.9091 240.0427-6.9091H807.6491C810.72-6.9091 813.7909-5.3736 815.3264-2.8145L993.9509 281.2445C995.9982 284.3155 995.9982 287.8982 993.9509 290.9691L815.3264 575.0282ZM614.1818 131.7936H546.11V390.2618H542.0155L462.1718 335.4973V398.9627L546.11 456.7982H613.67V132.3055Z"  horiz-adv-x="1126" vert-adv-y="1024"  />

      
      <glyph glyph-name="label_3" unicode="&#xE028;" d="M815.3264 571.9573C813.7909 574.5164 810.72 576.0518 807.6491 576.0518H240.0427C234.9245 576.0518 230.83 571.9573 230.83 566.8391V-1.2791C230.83-6.3973 234.9245-10.4918 240.0427-10.4918H807.6491C810.72-10.4918 813.7909-8.9564 815.3264-6.3973L993.9509 277.6618C995.9982 280.7327 995.9982 284.3155 993.9509 287.3864L815.3264 571.4455ZM561.9764 112.8564C489.2982 112.8564 440.6755 152.7782 437.6045 214.1964H502.6055C504.6527 186.5582 527.6845 169.6682 562.4882 169.6682S619.8118 188.6055 619.8118 216.2436 597.8036 262.3073 560.9527 262.3073H520.5191V312.9773H559.9291C590.6382 312.9773 611.6227 330.8909 611.6227 357.5055S591.15 400.4982 559.9291 400.4982 507.7236 382.5845 505.6764 354.4345H442.7227C444.77 415.8527 490.8336 454.7509 561.4645 454.7509 628.0009 454.7509 676.1118 418.4118 676.1118 367.23 676.1118 329.8673 652.5682 300.1818 616.2291 293.0164V288.9218C660.7573 283.8036 688.9073 254.1182 688.9073 211.6373 688.9073 154.8255 635.1664 113.3682 561.4645 113.3682Z"  horiz-adv-x="1126" vert-adv-y="1024"  />

      
      <glyph glyph-name="mobile_search_titleicon" unicode="&#xE02A;" d="M772.5511 547.4667C684.9422 524.7111 628.6222 439.9467 641.1378 350.0622 558.08 453.6 561.4933 573.0667 561.4933 744.8711 293.5467 638.4889 355.5556 330.1511 347.5911 236.8533 280.4622 293.1733 267.3778 434.2578 267.3778 434.2578 196.2667 381.3511 156.4444 296.5867 160.9956 208.4089 155.8756 16.1244 307.2-143.7333 498.9156-148.8533 683.8044-153.9733 840.2489-13.4578 855.04 170.8622 855.6089 183.3778 855.6089 195.8933 855.04 208.4089 854.4711 329.0133 771.4133 384.1956 772.5511 547.4667Z"  horiz-adv-x="1024" vert-adv-y="1024"  />

      
      <glyph glyph-name="updealslogo-PC" unicode="&#xE02B;" d="M363.9402 455.6663V173.642C363.9402 139.4129 391.4405 111.9126 425.6695 111.9126H652.4008C686.6298 111.9126 714.1302 139.4129 714.1302 173.642V455.6663C714.1302 466.1983 708.5716 475.8527 699.5023 481.1187L562.5859 559.2313V674.2059C562.5859 685.0305 553.8092 694.0998 542.9847 694.0998H535.3782C524.5536 694.0998 515.4844 685.3231 515.4844 674.2059V559.2313L378.568 481.1187C369.4987 475.8527 363.9402 466.1983 363.9402 455.6663ZM487.9841 415.8786C487.9841 443.9641 510.8035 466.7835 538.8889 466.7835 566.9743 466.7835 589.7937 443.9641 589.7937 415.8786S566.9743 364.9738 538.8889 364.9738 487.9841 387.7932 487.9841 415.8786H487.9841ZM859.8232 693.8072H695.114C664.103 693.8072 638.9432 668.6474 638.9432 637.9289V621.8383L857.7753 623.8862V147.6044C857.7753 57.2045 784.6362-15.9346 694.2363-15.9346H383.834C293.4341-15.9346 220.295 57.2045 220.295 147.6044V621.8383H434.7388V637.9289C434.7388 668.9399 409.5789 693.8072 378.8605 693.8072H210.6406C176.1189 693.8072 147.741 665.7218 147.741 630.9076V147.6044C147.741 17.4168 253.3538-88.196 383.5414-88.196H693.9438C824.1314-88.196 929.7442 17.4168 929.7442 147.6044V623.5937C929.7442 662.5037 898.4407 693.8072 859.5307 693.8072ZM3314.6639 635.2959H3285.7008V98.1624H3360.3027V589.6571C3360.3027 614.817 3339.8238 635.2959 3314.6639 635.2959ZM1252.4339 269.893H1252.4339V450.6929C1252.4339 475.8527 1231.955 496.3317 1206.7951 496.3317H1177.832V269.893C1177.832 178.0303 1246.8753 100.7954 1337.8604 89.6783V164.2802C1288.1258 174.8122 1252.4339 218.6956 1252.4339 269.6005ZM1468.048 450.9854H1468.048V270.1856C1468.048 219.2808 1432.3561 175.3973 1382.6215 164.8653V90.2634C1473.8991 101.3805 1542.3573 178.6154 1542.6498 270.4781V496.6242H1513.6868C1488.5269 496.6242 1468.048 476.1453 1468.048 450.9854ZM1773.1843 500.72C1767.3332 500.72 1761.482 500.4274 1755.9235 499.8423H1755.9235C1662.8905 487.8475 1593.8472 407.9796 1595.31 314.3616V-15.0569C1595.31-37.5838 1613.4485-55.7223 1635.9753-55.7223H1669.6193V318.4574C1668.7417 369.0696 1703.2633 413.2456 1752.7053 424.3628 1808.8762 435.7725 1863.5842 399.2029 1874.9939 343.0321 1876.4567 336.3033 1877.0418 329.5745 1877.0418 322.5532V278.6697C1877.0418 221.3286 1830.5253 175.1047 1773.4768 175.1047H1712.04V100.5029H1773.4768C1871.7758 100.5029 1951.6437 180.3708 1951.6437 278.6697V322.5532C1951.6437 421.1447 1871.4832 501.0126 1772.8917 500.72ZM2322.3126 651.6791H2290.7165V277.4995C2291.5942 226.8872 2257.0726 183.0038 2207.6305 171.8866 2151.4597 160.4769 2096.7517 197.0465 2085.342 253.2173 2083.8792 259.9461 2083.2941 266.6749 2083.2941 273.6962V317.5797C2083.2941 374.9208 2129.8105 421.1447 2186.859 421.1447H2246.248V495.7465H2186.859C2088.5601 495.7465 2008.6922 415.8786 2008.6922 317.5797H2008.6922V281.5953C2007.2294 187.9772 2076.2727 108.1093 2169.0131 96.4071 2267.0195 86.7527 2354.4938 158.429 2364.1482 256.4354 2364.7333 262.2865 2365.0259 267.8451 2365.0259 273.6962V608.6733C2365.0259 632.3704 2345.7171 651.6791 2322.0201 651.6791ZM3061.0175 499.8423H3061.0175C2963.0111 509.4967 2875.5368 437.8204 2865.8824 339.5214 2865.2973 333.6703 2865.0047 327.8192 2865.0047 322.2606V278.3771C2865.0047 180.0782 2944.8726 100.2103 3043.1716 100.2103H3102.5605V174.8122H3043.1716C2985.8305 174.8122 2939.6066 221.3286 2939.6066 278.3771H2939.6066V318.1648C2938.7289 368.7771 2973.2506 412.6605 3022.6926 423.7777 3078.8635 435.1874 3133.5715 398.6178 3144.9812 342.447 3146.444 335.7182 3147.0291 328.9894 3147.0291 321.968V99.6252H3221.631V314.069C3223.0938 407.6871 3154.0505 487.555 3061.0175 499.5498ZM2619.2574 499.5498H2619.2574C2509.5487 501.8902 2418.2711 415.001 2415.9307 305.2923 2413.2977 195.5837 2500.4795 104.3061 2610.1881 101.9656 2690.056 100.2103 2763.1951 146.1417 2795.9614 218.9882H2708.1945C2663.7259 167.4983 2585.9059 161.9397 2534.416 206.4083 2516.8626 221.6212 2503.9902 241.2225 2497.2614 263.4568H2810.5892C2810.5892 320.7978 2812.9297 373.1654 2757.9291 432.5544 2721.067 470.2941 2671.9175 494.2838 2619.5499 499.8423ZM2496.9688 337.7661C2517.1552 403.0062 2586.1985 439.5757 2651.4386 419.3893 2690.3486 407.3945 2721.067 376.6761 2733.0618 337.7661H2496.9688ZM3529.1077 257.6056H3548.1239V330.4522H3524.7194C3501.0223 330.4522 3481.7136 349.7609 3481.7136 373.458 3481.7136 397.155 3501.0223 416.4638 3524.7194 416.4638H3689.1361C3713.7108 416.4638 3733.3121 436.3576 3733.6047 460.6398V489.0177H3609.5608V496.6242C3609.5608 512.4223 3596.6883 525.2947 3580.8902 525.2947H3542.2728V489.0177H3524.7194C3460.6495 489.0177 3408.8671 436.9427 3409.1596 373.1654 3409.1596 365.5589 3410.0373 357.9525 3411.5001 350.346 3423.7874 295.3454 3473.2295 256.728 3529.4003 257.8982ZM3753.4985 238.0044H3753.4985C3741.2111 293.005 3691.7691 331.6224 3635.5983 330.4522H3602.2468V257.8982H3640.2792C3663.9762 257.8982 3683.285 238.5895 3683.285 214.8924S3663.9762 171.8866 3640.2792 171.8866H3475.8625C3451.2877 171.8866 3431.6865 151.9928 3431.3939 127.7106H3431.3939V99.3326H3541.6877V92.6038C3541.6877 76.8058 3554.5602 64.2259 3570.0656 63.9333H3608.6831V99.3326H3639.6941C3703.7639 99.3326 3755.5464 151.4077 3755.2538 215.185 3755.2538 222.7914 3754.3762 230.3979 3752.9134 238.0044Z"  horiz-adv-x="3891" vert-adv-y="1024"  />

      
      <glyph glyph-name="mobile_input_close" unicode="&#xE02C;" d="M512 755.1111A455.1111 455.1111 0 1 1 512-155.1111 455.1111 455.1111 0 1 1 512 755.1111ZM699.1644 148.6756L548.4089 300 699.1644 450.7556 662.7556 487.1644 512 336.4089 361.2444 487.1644 324.8356 450.7556 475.5911 300 324.8356 149.2444 361.2444 112.8356 512 263.5911 662.7556 112.2667 699.1644 148.6756Z"  horiz-adv-x="1024" vert-adv-y="1024"  />

      
      <glyph glyph-name="mobile_sidebar_arrow" unicode="&#xE02D;" d="M737.28 364.3657L389.12 713.2571C366.4457 734.4686 330.6057 734.4686 308.6629 711.7943 287.4514 689.8514 287.4514 655.4743 308.6629 632.8L616.5943 324.8686 308.6629 16.2057C286.72-6.4686 287.4514-42.3086 310.1257-64.2514 321.0971-74.4914 334.9943-80.3429 349.6229-80.3429S378.1486-75.2229 389.12-64.2514L737.28 283.9086C748.2514 294.1486 754.1029 309.5086 754.1029 324.1371 754.1029 339.4971 748.2514 353.3943 737.28 364.3657Z"  horiz-adv-x="1024" vert-adv-y="1024"  />

      
      <glyph glyph-name="mobile_check" unicode="&#xE02E;" d="M434.0622 66.7556C422.1156 66.7556 410.7378 71.3067 401.6356 79.84L230.9689 250.5067C213.3333 268.1422 213.3333 297.1556 230.9689 314.7911S277.6178 332.4267 295.2533 314.7911L433.4933 176.5511 742.4 485.4578C760.0356 503.0933 789.0489 503.0933 806.6844 485.4578S824.32 438.8089 806.6844 421.1733L465.3511 79.84C456.2489 70.7378 444.8711 66.7556 432.9244 66.7556Z"  horiz-adv-x="1024" vert-adv-y="1024"  />

      
      <glyph glyph-name="default_avatar" unicode="&#xE02F;" d="M512 812A512 512 0 1 1 512-212 512 512 0 1 1 512 812ZM740.6191 445.1409L523.7983 543.3113C521.5722 544.2017 519.3461 544.8696 517.12 545.5374 542.72 588.7235 584.3478 621.447 618.8522 621.447 630.873 621.447 640.4452 617.2174 647.1235 608.9809 657.5861 596.0696 660.7026 574.0313 655.36 548.6539 653.1339 537.5235 658.2539 526.6157 668.2713 521.273 678.2887 516.153 690.087 518.1565 697.8783 526.1704 721.2522 550.6574 753.0852 592.7304 773.12 653.0574 776.2365 662.6296 771.1165 673.0922 761.5443 676.2087 751.9722 679.5478 741.5096 674.2052 738.393 664.633 726.5948 629.0157 710.1217 600.5217 694.3165 578.9287 693.2035 599.8539 686.7478 617.8852 675.3948 631.9096 661.8157 648.6052 641.5583 657.7322 618.6296 657.7322 562.3096 657.7322 498.6435 604.0835 470.3722 534.1843L272.9183 444.9183C249.5443 434.233 234.407 411.0817 234.407 385.2591V184.9113C234.407 86.5183 314.1009 6.6017 412.7165 6.6017H600.8209C699.2139 6.6017 779.1304 86.2957 779.1304 184.9113V385.2591C779.1304 411.0817 763.993 434.233 740.6191 444.9183ZM469.4817 406.1843C469.4817 385.7043 486.1774 369.0087 506.6574 369.0087S543.833 385.7043 543.833 406.1843 527.1374 443.36 506.6574 443.36C503.9861 443.36 501.5374 443.1374 499.0887 442.6922 490.8522 460.5009 491.52 486.3235 501.76 515.04 505.5443 525.7252 510.887 535.9652 516.6748 545.76 507.7704 547.9861 498.1983 547.3183 489.5165 543.5339L470.3722 534.8522C469.2591 532.4035 468.1461 529.9548 467.2557 527.5061 451.673 484.32 453.0087 444.2504 470.8174 416.647 469.927 413.3078 469.2591 409.9687 469.2591 406.1843ZM440.32 235.6661V209.8435C440.32 203.6104 445.2174 198.713 451.4504 198.713S462.5809 203.6104 462.5809 209.8435V235.6661C462.5809 268.167 436.313 294.4348 403.8122 294.4348S345.0435 268.167 345.0435 235.6661V209.8435C345.0435 203.6104 349.9409 198.713 356.1739 198.713S367.3043 203.6104 367.3043 209.8435V235.6661C367.3043 255.7009 383.7774 272.1739 403.8122 272.1739S440.32 255.7009 440.32 235.6661ZM609.7252 294.2122C577.447 294.2122 550.9565 267.9443 550.9565 235.4435V209.6209C550.9565 203.3878 555.8539 198.4904 562.087 198.4904S573.2174 203.3878 573.2174 209.6209V235.4435C573.2174 255.4783 589.4678 271.9513 609.7252 271.9513S646.233 255.4783 646.233 235.4435V209.6209C646.233 203.3878 651.1304 198.4904 657.3635 198.4904S668.4939 203.3878 668.4939 209.6209V235.4435C668.4939 267.9443 642.2261 294.2122 609.7252 294.2122ZM415.6104 136.16C415.6104 92.9739 450.56 58.0243 493.7461 58.0243H521.127C564.5357 58.0243 599.9304 93.1965 599.9304 136.8278V150.6296H415.6104V136.3826Z"  horiz-adv-x="1024" vert-adv-y="1024"  />

      
      <glyph glyph-name="favourite" unicode="&#xE030;" d="M290.4436-113.3236C275.5491-113.3236 260.6545-108.6691 247.8545-99.36 225.5127-83.0691 214.3418-55.84 218.9964-28.6109L254.1382 176.6545C254.6036 178.9818 253.6727 181.3091 252.0436 182.9382L102.8655 328.3927C83.0836 347.7091 75.8691 376.1018 84.48 402.6327 93.0909 428.9309 115.4327 448.0145 142.8945 451.9709L349.0909 481.9927C351.4182 482.2255 353.5127 483.8545 354.4436 485.9491L446.6036 672.8291C458.9382 697.7309 483.84 713.0909 511.5345 713.0909 511.5345 713.0909 511.5345 713.0909 511.5345 713.0909 539.2291 713.0909 564.1309 697.7309 576.4655 672.8291L668.6255 485.9491C669.5564 483.8545 671.6509 482.4582 673.9782 481.9927L880.1745 451.9709C907.6364 448.0145 929.9782 429.1636 938.5891 402.6327 947.2 376.3345 940.2182 347.7091 920.2036 328.3927L771.0255 182.9382C769.3964 181.3091 768.4655 178.9818 768.9309 176.6545L804.0727-28.8436C808.7273-56.3055 797.7891-83.3018 775.2145-99.5927S723.5491-117.9782 698.88-105.1782L514.56-8.1309C512.4655-6.9673 509.9055-6.9673 507.8109-8.1309L323.2582-105.1782C313.4836-110.5309 301.8473-113.3236 290.4436-113.3236ZM512 648.16C508.9745 648.16 506.88 646.7636 505.4836 644.2036L413.3236 457.3236C402.8509 435.9127 382.3709 421.2509 358.8655 417.76L152.6691 387.7382C149.6436 387.2727 147.7818 385.6436 146.8509 382.8509 145.92 380.0582 146.6182 377.4982 148.7127 375.4036L297.8909 229.9491C314.88 213.4255 322.7927 189.4545 318.6036 165.9491L283.4618-39.5491C282.9964-42.5745 283.9273-44.9018 286.2545-46.5309S291.1418-48.3927 293.9345-46.9964L478.4873 50.0509C499.4327 61.2218 524.8 61.2218 545.7455 50.0509L730.0655-46.9964C732.6255-48.3927 735.1855-48.16 737.7455-46.5309 740.0727-44.6691 741.2364-42.3418 740.5382-39.5491L705.3964 165.7164C701.44 189.2218 709.12 213.1927 726.1091 229.7164L875.2873 375.1709C877.3818 377.2655 878.08 379.8255 877.1491 382.6182S874.3564 387.04 871.3309 387.5055L665.1345 417.5273C641.6291 421.0182 621.1491 435.68 610.6764 457.0909L518.5164 643.9709C517.12 646.7636 515.0255 648.16 512 648.16L512 648.16ZM528.9891 499.4473L582.2836 391.6945C585.0764 386.1091 590.4291 382.1527 596.7127 381.2218L715.6364 364C731.2291 361.6727 737.5127 342.5891 726.1091 331.4182L640 247.4036C635.5782 242.9818 633.4836 236.6982 634.4145 230.4145L654.6618 111.9564C657.2218 96.3636 640.9309 84.4945 626.9673 91.9418L520.6109 147.7964C515.0255 150.8218 508.5091 150.8218 502.9236 147.7964L396.5673 91.9418C382.6036 84.4945 366.3127 96.3636 368.8727 111.9564L389.12 230.4145C390.2836 236.6982 388.1891 242.9818 383.5345 247.4036L297.4255 331.4182C286.0218 342.3564 292.3055 361.6727 307.8982 364L426.8218 381.2218C433.1055 382.1527 438.4582 386.1091 441.2509 391.6945L494.5455 499.4473C501.9927 513.6436 522.0073 513.6436 528.9891 499.4473Z"  horiz-adv-x="1024" vert-adv-y="1024"  />

      
      <glyph glyph-name="coupons" unicode="&#xE031;" d="M570.4145 576.7127A314.4145 314.4145 0 1 1 570.4145-52.1164 314.4145 314.4145 0 1 1 570.4145 576.7127ZM1023.3018 433.5855C1012.3636 487.5782 948.8291 521.5564 839.4473 532.7273 766.6036 635.1273 646.9818 702.3855 512 702.3855 317.9055 702.3855 155.6945 564.3782 117.9927 381.4545 8.6109 317.6873-6.7491 262.0655 0.6982 225.76 7.68 191.7818 39.5636 149.8909 147.3164 131.5055 211.0836-6.2691 350.2545-102.3855 512-102.3855 727.9709-102.3855 904.3782 68.9018 913.4545 282.5455 989.3236 328.6255 1034.0073 380.7564 1023.3018 433.5855ZM512 637.2218C690.9673 637.2218 837.3527 497.12 848.0582 320.7127 777.0764 283.4764 672.8145 244.6109 535.04 216.4509 410.0655 191.0836 289.9782 181.7745 196.8873 190.6182 195.7236 190.8509 194.56 190.8509 193.3964 191.0836 181.5273 225.2945 174.7782 261.8327 174.7782 300 174.7782 485.9491 326.0509 637.2218 512 637.2218ZM64.4655 238.56C62.6036 247.6364 71.68 269.0473 109.6145 297.9055 109.8473 265.3236 114.2691 233.9055 121.7164 203.6509 81.2218 215.2873 66.3273 230.1818 64.4655 238.56ZM512-37.2218C390.7491-37.2218 284.8582 27.2436 225.28 123.36 239.7091 122.6618 254.3709 122.1964 269.4982 122.1964 353.28 122.1964 449.3964 132.6691 547.84 152.6836 654.8945 174.3273 760.0873 207.1418 844.3345 246.24 818.5018 85.8909 679.5636-37.2218 512-37.2218ZM909.7309 358.1818C904.3782 394.2545 894.8364 428.6982 880.64 460.8145 937.4255 449.1782 957.44 430.7927 959.5345 420.5527 962.3273 406.8218 945.3382 384.2473 909.7309 358.1818Z"  horiz-adv-x="1024" vert-adv-y="1024"  />

      
      <glyph glyph-name="activities" unicode="&#xE032;" d="M911.1273-14.88H285.0909V379.1273C285.0909 451.9709 344.2036 510.8509 416.8145 510.8509H910.8945V393.0909L842.4727 295.8109 910.8945 185.0327V-14.88ZM925.3236 372.6109C938.5891 377.4982 947.4327 390.0655 947.4327 404.0291V611.1564C947.4327 629.7745 932.3055 644.6691 913.92 644.6691H110.3127C91.6945 644.6691 76.8 629.5418 76.8 611.1564V404.0291C76.8 389.8327 85.6436 377.2655 98.9091 372.6109 120.5527 364.6982 137.3091 347.9418 145.2218 326.2982 159.8836 286.2691 138.9382 241.8182 98.9091 227.1564 85.6436 222.2691 76.8 209.7018 76.8 195.7382V-11.3891C76.8-30.0073 91.9273-44.9018 110.3127-44.9018H913.92C932.5382-44.9018 947.4327-29.7745 947.4327-11.3891V195.7382C947.4327 209.9345 938.5891 222.5018 925.3236 227.1564 903.68 235.0691 886.9236 251.8255 879.0109 273.4691 864.3491 313.7309 885.0618 358.1818 925.3236 372.6109ZM880.1745 425.44C820.1309 391.2291 791.5055 317.6873 815.7091 250.6618 827.5782 218.08 850.3855 191.3164 880.1745 174.3273V21.8909H143.8255V174.3273C169.6582 188.9891 190.3709 211.3309 203.1709 238.7927 219.4618 273.7018 221.3236 313.0327 208.0582 349.1055 196.1891 381.6873 173.3818 408.4509 143.5927 425.44V577.8764H880.1745V425.44ZM364.9164 353.0618H659.0836C677.0036 353.0618 691.6655 367.7236 691.6655 385.6436S677.0036 418.2255 659.0836 418.2255H364.9164C346.9964 418.2255 332.3345 403.5636 332.3345 385.6436S346.7636 353.0618 364.9164 353.0618ZM364.9164 181.7745H659.0836C677.0036 181.7745 691.6655 196.4364 691.6655 214.3564S677.0036 246.9382 659.0836 246.9382H364.9164C346.9964 246.9382 332.3345 232.2764 332.3345 214.3564S346.7636 181.7745 364.9164 181.7745Z"  horiz-adv-x="1024" vert-adv-y="1024"  />

      
      <glyph glyph-name="profile" unicode="&#xE033;" d="M195.2582 91.2436M299.2873 91.2436L775.9127 91.2436Q879.9418 91.2436 879.9418-12.7855L879.9418-28.1455Q879.9418-132.1745 775.9127-132.1745L299.2873-132.1745Q195.2582-132.1745 195.2582-28.1455L195.2582-12.7855Q195.2582 91.2436 299.2873 91.2436ZM505.0182 264.3927A250.1818 250.1818 0 1 0 755.2 514.5745 250.6473 250.6473 0 0 0 505.0182 264.3927ZM505.0182 699.5927A186.1818 186.1818 0 1 1 691.2 513.4109 186.1818 186.1818 0 0 1 505.0182 699.5927ZM752.4073-165.4545H257.3964A186.1818 186.1818 0 1 0 257.3964 209.0036H752.4073A186.1818 186.1818 0 1 0 752.4073-165.4545ZM257.3964 144.5382A122.1818 122.1818 0 1 1 257.3964-99.5927H752.4073A122.1818 122.1818 0 1 1 752.4073 144.5382Z"  horiz-adv-x="1024" vert-adv-y="1024"  />

      
      <glyph glyph-name="favourite_2" unicode="&#xE038;" d="M272.2909-147.9535A78.8015 78.8015 0 0 0 194.8393-56.1193L232.96 166.4145A7.6335 7.6335 0 0 1 230.6793 173.2102L68.9338 330.9527A78.5222 78.5222 0 0 0 112.3142 464.9105L335.7324 497.4924A7.3542 7.3542 0 0 1 341.5505 501.7745L441.4836 704.3869A78.0567 78.0567 0 0 0 511.8604 748.0465H511.8604A78.0567 78.0567 0 0 0 582.2371 704.3869L682.1702 501.7745A7.9127 7.9127 0 0 1 687.9884 497.4924L911.4065 464.9105A78.5222 78.5222 0 0 0 954.7869 330.9527L793.3207 173.2102A7.6335 7.6335 0 0 1 791.04 166.4145L829.1607-56.3985A77.6844 77.6844 0 0 0 797.8822-133.1055 78.5222 78.5222 0 0 0 715.1244-139.1564L515.3047-33.9636A7.5404 7.5404 0 0 1 507.9971-33.9636L307.8516-139.1564A75.0778 75.0778 0 0 0 272.2909-147.9535ZM512.4655 677.6698A7.5404 7.5404 0 0 1 505.3905 673.3876L405.4575 470.7753A78.3825 78.3825 0 0 0 346.4378 427.8604L123.0196 395.2785A7.3076 7.3076 0 0 1 116.6895 389.9724 7.4938 7.4938 0 0 1 118.6909 381.92L280.3433 224.4102A77.8705 77.8705 0 0 0 302.7782 155.0109L264.6575-67.8022A7.2145 7.2145 0 0 1 267.6829-75.3891 7.6335 7.6335 0 0 1 276.0145-75.9011L476.16 29.2916A77.7309 77.7309 0 0 0 549.0967 29.2916L748.9164-75.9011A7.68 7.68 0 0 1 757.248-75.3891 7.1215 7.1215 0 0 1 760.2735-67.8022L722.1527 154.592A78.5687 78.5687 0 0 0 744.5876 223.9913L906.3331 381.6873A7.4938 7.4938 0 0 1 908.3345 389.7396 7.3076 7.3076 0 0 1 902.0044 395.0458L678.5862 427.6276A78.3825 78.3825 0 0 0 619.5665 470.5425L519.5404 673.1084A7.3542 7.3542 0 0 1 512.4655 677.7629Z"  horiz-adv-x="1024" vert-adv-y="1024"  />

      
      <glyph glyph-name="Coupons_1" unicode="&#xE039;" d="M1022.4175 433.3527C1011.4793 487.2524 947.9447 521.184 838.8887 532.3084A401.0356 401.0356 0 0 1 118.6444 381.3149C9.4487 317.6407-5.8647 262.112 1.7687 225.8996 8.7505 191.968 40.5876 150.1702 148.1542 131.7847A400.896 400.896 0 0 1 912.9891 282.5455C988.5324 328.5789 1033.1229 380.6167 1022.4175 433.3527ZM512 636.6167A336.5236 336.5236 0 0 0 847.4996 320.48 1201.5244 1201.5244 0 0 0 534.9935 216.4044 1207.0167 1207.0167 0 0 0 197.3993 190.6182C196.2356 190.6182 195.072 190.6182 193.9084 191.0836A330.7985 330.7985 0 0 0 175.2902 299.8138 337.0356 337.0356 0 0 0 512 636.6167ZM65.1636 238.6531C63.3018 247.7295 72.3782 269.0938 110.2196 297.9055A404.5731 404.5731 0 0 1 122.3215 203.7905C81.9665 215.4269 66.9324 230.2749 65.2102 238.6531ZM512-36.6633A336.5236 336.5236 0 0 0 225.792 123.6393C240.1745 122.9411 254.8364 122.4756 269.9171 122.4756A1426.2924 1426.2924 0 0 1 547.7935 152.9164 1370.4844 1370.4844 0 0 1 843.776 246.3331 336.7564 336.7564 0 0 0 512-36.6633ZM909.0327 358.0422A396.7535 396.7535 0 0 1 879.9884 460.4422C936.6807 448.8058 956.6487 430.4669 958.7433 420.2269 961.536 406.6356 944.5935 384.1076 909.0327 358.0887Z"  horiz-adv-x="1024" vert-adv-y="1024"  />

      
      <glyph glyph-name="activities_1" unicode="&#xE03A;" d="M963.3513 379.4531A36.7244 36.7244 0 0 1 987.5084 413.7571V640.0145A36.6313 36.6313 0 0 1 950.9236 676.5993H73.0764A36.6313 36.6313 0 0 1 36.4916 640.0145V413.7571A36.2124 36.2124 0 0 1 60.6487 379.4531 84.5265 84.5265 0 0 0 60.6487 220.5935 36.7244 36.7244 0 0 1 36.4916 186.2895V-39.968A36.6313 36.6313 0 0 1 73.0764-76.5527H950.8771A36.6313 36.6313 0 0 1 987.4618-39.968V186.2429A36.2124 36.2124 0 0 1 963.3047 220.5469 84.5265 84.5265 0 0 0 963.3047 379.4065ZM914.0131 437.1695A157.696 157.696 0 0 1 914.0131 162.8771V-3.4298H109.7076V162.8305A157.7891 157.7891 0 0 1 109.4749 437.1229V603.6625H914.0131ZM351.232 358.0887H672.3956A35.6073 35.6073 0 0 1 672.3956 429.2567H351.232A35.6073 35.6073 0 0 1 351.232 358.0887ZM351.232 170.976H672.3956A35.6073 35.6073 0 0 1 672.3956 242.144H351.232A35.6073 35.6073 0 0 1 351.232 170.976Z"  horiz-adv-x="1024" vert-adv-y="1024"  />

      
      <glyph glyph-name="profile_1" unicode="&#xE03B;" d="M512.1396 264.2531A251.1127 251.1127 0 1 0 763.2524 515.3658 251.3455 251.3455 0 0 0 512.1396 264.2531ZM512.1396 701.0356A185.7164 185.7164 0 1 1 697.856 515.3193 186.1818 186.1818 0 0 1 512.1396 701.0822ZM760.4131-166.4785H263.5869A188.0436 188.0436 0 0 0 263.5869 209.6087H760.4131A188.0436 188.0436 0 0 0 760.4131-166.4785ZM263.5869 143.9796A122.6473 122.6473 0 1 1 263.5869-101.2684H760.4131A122.6473 122.6473 0 1 1 760.4131 143.9796Z"  horiz-adv-x="1024" vert-adv-y="1024"  />

      
      <glyph glyph-name="number_bg" unicode="&#xE03C;" d="M768-58.4L51.2-58.4 51.2 658.4 768 658.4 972.8 300 768-58.4Z"  horiz-adv-x="1024" vert-adv-y="1024"  />

      
      <glyph glyph-name="footer_twitter" unicode="&#xE03D;" d="M827.52 461.28V440.16A458.88 458.88 0 0 0 364.8-20 462.08 462.08 0 0 0 115.2 52.96 266.88 266.88 0 0 1 154.24 52.96 327.68 327.68 0 0 1 356.48 122.72 161.92 161.92 0 0 0 204.16 230.88 168.96 168.96 0 0 1 277.76 236 161.92 161.92 0 0 0 149.76 395.36V395.36A155.52 155.52 0 0 1 222.72 374.88 161.28 161.28 0 0 0 148.48 509.92 158.08 158.08 0 0 0 170.24 591.84 464 464 0 0 1 505.6 422.24 162.56 162.56 0 0 0 664.32 620 160 160 0 0 0 783.36 568.8 323.84 323.84 0 0 1 886.4 607.84 165.12 165.12 0 0 0 815.36 518.24 331.52 331.52 0 0 1 908.8 543.84 352 352 0 0 0 827.52 461.28Z"  horiz-adv-x="1024" vert-adv-y="1024"  />

      
      <glyph glyph-name="footer_facebook" unicode="&#xE03E;" d="M727.68 259.04L748.8 428H584.32V531.04C584.32 579.04 597.76 612.32 666.88 612.32H754.56V760.8A1216 1216 0 0 1 626.56 767.2 200.32 200.32 0 0 1 412.8 547.68V424.8H269.44V259.04H412.8V-167.2H584.32V259.04Z"  horiz-adv-x="1024" vert-adv-y="1024"  />

      
      <glyph glyph-name="footer_ins" unicode="&#xE03F;" d="M512 436.32A136.32 136.32 0 1 1 648.32 300 136.32 136.32 0 0 1 512 436.32M921.6 300C921.6 356.32 921.6 412.64 921.6 468.96A246.4 246.4 0 0 1 857.6 641.12 245.12 245.12 0 0 1 685.44 705.12C629.12 705.12 572.8 705.12 516.48 705.12S403.84 705.12 347.52 705.12A246.4 246.4 0 0 1 175.36 641.12 245.12 245.12 0 0 1 111.36 468.96C111.36 412.64 111.36 356.32 111.36 300S111.36 187.36 111.36 131.04A246.4 246.4 0 0 1 175.36-41.12 245.12 245.12 0 0 1 347.52-105.12C403.84-108.32 460.16-105.12 516.48-105.12S629.12-105.12 685.44-105.12A246.4 246.4 0 0 1 857.6-41.12 245.12 245.12 0 0 1 921.6 131.04C924.8 187.36 921.6 243.68 921.6 300M512 90.08A209.92 209.92 0 1 0 721.92 300 209.92 209.92 0 0 0 512 90.08M730.88 469.6A49.28 49.28 0 1 0 768 484.32 47.36 47.36 0 0 0 733.44 469.6"  horiz-adv-x="1024" vert-adv-y="1024"  />

      
      <glyph glyph-name="funny" unicode="&#xE040;" d="M512 726.88A426.88 426.88 0 1 1 938.88 300 426.88 426.88 0 0 1 512 726.88ZM384 476.64A64 64 0 1 0 320 412.64 64 64 0 0 0 384 476.64ZM512 33.76A192 192 0 0 0 320 211.68 16 16 0 0 0 335.36 228.32H692.48A16 16 0 0 0 707.84 211.68 192 192 0 0 0 512 33.76ZM640 348.64A64 64 0 1 0 704 412.64 64 64 0 0 0 640 348.64Z"  horiz-adv-x="1024" vert-adv-y="1024"  />

      
      <glyph glyph-name="like" unicode="&#xE041;" d="M882.56 395.36H609.28V587.36C613.12 661.6 487.68 748 441.6 660.32 441.6 660.32 332.16 408.16 332.16 394.08V-98.08H802.56A48.64 48.64 0 0 1 851.2-56.48L925.44 346.08A43.52 43.52 0 0 1 882.56 395.36ZM284.8-98.08H141.44A42.88 42.88 0 0 0 97.92-55.2V352.48A43.52 43.52 0 0 0 141.44 395.36H284.16V-98.08Z"  horiz-adv-x="1024" vert-adv-y="1024"  />

      
      <glyph glyph-name="dislike" unicode="&#xE042;" d="M141.44 188H414.72V-4C410.88-77.6 536.32-166.56 582.4-76.32 582.4-76.32 691.84 175.84 691.84 189.92V684H221.44A49.28 49.28 0 0 1 172.8 642.4L98.56 236A42.88 42.88 0 0 1 141.44 186.72ZM739.2 684H882.56A42.88 42.88 0 0 0 926.08 641.12V230.88A43.52 43.52 0 0 0 882.56 188H739.84V684Z"  horiz-adv-x="1024" vert-adv-y="1024"  />

      
      <glyph glyph-name="helpful" unicode="&#xE043;" d="M359.68-84A69.76 69.76 0 0 1 429.44-154.4H594.56A69.76 69.76 0 0 1 664.32-84V-26.4H359.68ZM512 752.48A343.04 343.04 0 0 1 359.68 101.6V20.96H481.28V243.04L360.32 364A30.72 30.72 0 0 0 403.84 407.52L512 300 620.16 407.52A30.72 30.72 0 0 0 663.68 364L542.72 243.04V20.96H664.32V101.6A343.04 343.04 0 0 1 512 752.48Z"  horiz-adv-x="1024" vert-adv-y="1024"  />

      
      <glyph glyph-name="filter" unicode="&#xE044;" d="M896 673.12A31.36 31.36 0 0 1 867.84 689.76H157.44A32 32 0 0 1 128 640.48L384 250.08V15.2A32.64 32.64 0 0 1 404.48-14.88L602.24-87.84 613.12-87.84A38.4 38.4 0 0 1 629.12-84 33.92 33.92 0 0 1 642.56-57.12V250.08L896 640.48A31.36 31.36 0 0 1 896 673.12ZM448 37.6V225.76H576V-12.32ZM592 289.76H432L215.68 625.76H808.32Z"  horiz-adv-x="1024" vert-adv-y="1024"  />

      
      <glyph glyph-name="footer_telegram" unicode="&#xE045;" d="M135.68 349.28Q480.64 500.32 595.84 547.68C815.36 639.2 860.8 654.56 890.88 655.2A49.92 49.92 0 0 0 920.96 646.24 33.28 33.28 0 0 0 932.48 624.48 112.64 112.64 0 0 0 932.48 593.76C920.32 465.76 868.48 165.6 842.88 26.08 832-33.44 810.24-53.28 789.12-55.2 743.04-59.04 708.48-24.48 661.12 4.32 592 49.76 552.32 78.56 485.12 122.72 407.04 173.92 457.6 202.72 502.4 250.72 513.92 262.24 715.52 446.56 720 463.2A19.2 19.2 0 0 1 716.16 477.28 19.2 19.2 0 0 1 699.52 477.28Q689.28 477.28 366.72 257.12A147.84 147.84 0 0 0 280.96 225.76 545.92 545.92 0 0 0 158.08 254.56C108.8 270.56 69.76 278.88 72.96 306.4 78.72 319.84 97.92 334.56 135.68 349.28Z"  horiz-adv-x="1024" vert-adv-y="1024"  />

      
      <glyph glyph-name="Logo_facebook" unicode="&#xE046;" d="M0 812M512 812L512 812Q1024 812 1024 300L1024 300Q1024-212 512-212L512-212Q0-212 0 300L0 300Q0 812 512 812ZM6.4 805.6M512 805.6L512 805.6Q1017.6 805.6 1017.6 300L1017.6 300Q1017.6-205.6 512-205.6L512-205.6Q6.4-205.6 6.4 300L6.4 300Q6.4 805.6 512 805.6ZM432.4608-23.6096V252.3712H332.8V366.5216H432.4608V453.5616C432.4608 552.544 491.0592 607.1616 580.7232 607.1616A600 600 0 0 0 668.5952 599.4816V502.2912H619.0976C570.3296 502.2912 555.0976 471.8528 555.0976 440.6208V366.5344H663.9616L646.5536 252.3712H555.0848V-23.5968"  horiz-adv-x="1024" vert-adv-y="1024"  />

      
      <glyph glyph-name="Logo_google" unicode="&#xE047;" d="M0 812M512 812L512 812Q1024 812 1024 300L1024 300Q1024-212 512-212L512-212Q0-212 0 300L0 300Q0 812 512 812ZM6.4 805.6M512 805.6L512 805.6Q1017.6 805.6 1017.6 300L1017.6 300Q1017.6-205.6 512-205.6L512-205.6Q6.4-205.6 6.4 300L6.4 300Q6.4 805.6 512 805.6ZM787.968 293.7408A241.3184 241.3184 0 0 1 782.0288 351.3408H517.632V246.8416H672.8192A137.6128 137.6128 0 0 0 615.2192 155.4752L614.6944 151.9808 698.2912 87.2256 704.0768 86.6496C757.2608 135.776 787.9296 208.0576 787.9296 293.7792M517.632 18.4A268.4032 268.4032 0 0 1 704.1152 86.6112L615.2576 155.4496A166.6688 166.6688 0 0 0 517.632 127.2896 169.5232 169.5232 0 0 0 357.4272 244.3072L354.1248 244.0256 267.2 176.7488 266.0608 173.5872A281.3952 281.3952 0 0 1 517.6192 18.3872M357.4272 244.3072A173.3632 173.3632 0 0 0 348.0448 300 182.1696 182.1696 0 0 0 357.12 355.6928L356.9664 359.4304 268.9536 427.7824 266.0736 426.4128A281.0112 281.0112 0 0 1 266.0736 173.6L357.44 244.3072M517.632 472.7104A156.0704 156.0704 0 0 0 626.5216 430.7776L705.9968 508.384A270.5536 270.5536 0 0 1 517.632 581.6 281.3952 281.3952 0 0 1 266.0736 426.4128L357.12 355.6928A170.24 170.24 0 0 0 517.632 472.7104"  horiz-adv-x="1024" vert-adv-y="1024"  />

      
      <glyph glyph-name="ic_pinlun" unicode="&#xE048;" d="M128.96 41.376C117.056 61.6 109.248 75.104 105.408 82.336A460.8 460.8 0 1 0 275.2-95.776L253.504-82.976 140.672-113.568A34.56 34.56 0 0 0 98.24-71.072L128.96 41.632ZM199.36 37.28L180.736-31.136 249.152-12.512A34.56 34.56 0 0 0 275.648-15.968Q293.184-26.144 310.592-36.448A391.616 391.616 0 1 1 166.144 115.04C170.176 107.552 180.096 90.4 195.712 63.84A34.56 34.56 0 0 0 199.488 37.28ZM357.12 114.08A34.56 34.56 0 1 0 401.344 167.264 172.8 172.8 0 0 1 622.272 167.264 34.56 34.56 0 0 0 666.496 114.08 242.112 242.112 0 0 0 357.12 114.08Z"  horiz-adv-x="1024" vert-adv-y="1024"  />

      
      <glyph glyph-name="ic-sc" unicode="&#xE049;" d="M326.144-124.96A79.296 79.296 0 0 0 216.192-98.144 81.216 81.216 0 0 0 206.784-37.856L255.616 170.336A13.824 13.824 0 0 1 251.392 183.84L91.392 323.104A81.088 81.088 0 0 0 82.752 436.256 79.488 79.488 0 0 0 137.088 464.352L346.816 481.44A12.8 12.8 0 0 1 357.376 489.44L438.208 687.072A79.488 79.488 0 0 0 585.408 687.072L666.24 489.44A12.8 12.8 0 0 1 676.8 481.44L886.528 464.352A80.768 80.768 0 0 0 932.224 323.104L772.224 183.84A13.76 13.76 0 0 1 768 170.336L817.088-37.856A80.576 80.576 0 0 0 758.144-134.688 79.04 79.04 0 0 0 697.728-124.96L518.144-13.408A11.84 11.84 0 0 1 505.344-13.408L325.76-124.96ZM553.792 43.68L733.376-67.872A11.904 11.904 0 0 1 742.464-69.344 13.376 13.376 0 0 1 751.872-53.152L703.04 155.04A81.024 81.024 0 0 0 728.64 234.592L888.64 373.856A13.632 13.632 0 0 1 893.184 383.072 12.8 12.8 0 0 1 881.664 397.472L671.936 414.56A79.808 79.808 0 0 0 604.672 464.096L523.52 661.664A12.8 12.8 0 0 1 516.672 668.768 12.224 12.224 0 0 1 500.544 661.664L419.712 464.032A79.808 79.808 0 0 0 352.448 414.496L142.72 397.408A12.288 12.288 0 0 1 134.336 392.992 13.888 13.888 0 0 1 135.744 373.792L295.744 234.528A81.024 81.024 0 0 0 321.344 154.976L272.512-53.216A14.016 14.016 0 0 1 274.112-63.584 12.096 12.096 0 0 1 291.008-67.936L470.592 43.616A79.104 79.104 0 0 0 554.176 43.616Z"  horiz-adv-x="1024" vert-adv-y="1024"  />

      
      <glyph glyph-name="img_help" unicode="&#xE04A;" d="M175.9705 718.1858H858.5846A136.5858 136.5858 0 0 0 995.1705 581.6V112.608A136.5858 136.5858 0 0 0 858.5846-23.9778H682.7717L570.4074-96.3274A75.1458 75.1458 0 0 0 464.3446-96.3274L352.4529-23.9778H175.9705A136.5858 136.5858 0 0 0 39.3846 112.6868V581.6A136.5858 136.5858 0 0 0 175.9705 718.1858ZM434.6092 436.0345A75.3428 75.3428 0 0 0 516.8443 516.3397 78.7692 78.7692 0 0 0 600.2215 436.0345 64.8665 64.8665 0 0 0 564.3028 371.2862L555.4806 364.7877C505.8166 327.7662 483.2098 327.8055 483.2098 250.1785A34.1465 34.1465 0 1 1 551.5028 250.1785C551.5028 304.6868 562.9243 285.152 596.3225 310.0431L604.7902 316.3446A129.2997 129.2997 0 0 1 668.5145 436.0738 146.7471 146.7471 0 0 1 517.9865 584.672 143.2025 143.2025 0 0 1 366.2769 436.0345 34.1465 34.1465 0 0 1 434.5698 436.0345ZM517.3169 113.3169A34.1465 34.1465 0 1 1 483.1705 147.4634 34.1465 34.1465 0 0 1 517.2775 113.2775Z"  horiz-adv-x="1024" vert-adv-y="1024"  />

      

  </font>
</defs>
</svg>
